<svg xmlns="http://www.w3.org/2000/svg" xmlns:xlink="http://www.w3.org/1999/xlink" viewBox="0 0 1366 4859.87"><defs><style>.cls-1,.cls-3{fill:none;}.cls-2{clip-path:url(#clip-path);}.cls-3{stroke:#fff;stroke-miterlimit:10;}.cls-4{clip-path:url(#clip-path-2);}.cls-5{fill:url(#linear-gradient);}.cls-6{fill:url(#Unnamed_Pattern);}</style><clipPath id="clip-path"><rect class="cls-1" width="472.19" height="665.64"/></clipPath><clipPath id="clip-path-2"><rect class="cls-1" width="1366" height="4859.87"/></clipPath><linearGradient id="linear-gradient" y1="4859.87" x2="1" y2="4859.87" gradientTransform="matrix(0, -4859.87, -4859.87, 0, 23619001.57, 4860.16)" gradientUnits="userSpaceOnUse"><stop offset="0" stop-color="#25408e"/><stop offset="0.25" stop-color="#cef6e4"/><stop offset="0.4" stop-color="#bcf2e4"/><stop offset="0.56" stop-color="#fff"/><stop offset="0.76" stop-color="#9cebe4"/><stop offset="0.78" stop-color="#8bd3d8"/><stop offset="0.81" stop-color="#6ca7c2"/><stop offset="0.85" stop-color="#5382af"/><stop offset="0.89" stop-color="#3f65a1"/><stop offset="0.93" stop-color="#305096"/><stop offset="0.96" stop-color="#284490"/><stop offset="1" stop-color="#25408e"/></linearGradient><pattern id="Unnamed_Pattern" data-name="Unnamed Pattern" width="472.19" height="665.64" patternTransform="matrix(1, 0, 0, -1, -1099.65, 18303.13)" patternUnits="userSpaceOnUse" viewBox="0 0 472.19 665.64"><rect class="cls-1" width="472.19" height="665.64"/><g class="cls-2"><line class="cls-3" x1="471.83" y1="166.06" x2="441.05" y2="135.27"/><line class="cls-3" x1="471.83" y1="135.27" x2="441.05" y2="166.06"/><line class="cls-3" x1="471.83" y1="69.22" x2="441.05" y2="38.43"/><line class="cls-3" x1="471.83" y1="38.43" x2="441.05" y2="69.22"/><line class="cls-3" x1="471.83" y1="117.64" x2="441.05" y2="86.85"/><line class="cls-3" x1="471.83" y1="86.85" x2="441.05" y2="117.64"/><line class="cls-3" x1="267.23" y1="56.42" x2="236.45" y2="25.64"/><line class="cls-3" x1="267.23" y1="25.64" x2="236.45" y2="56.42"/><line class="cls-3" x1="267.23" y1="8.5" x2="236.45" y2="-22.28"/><line class="cls-3" x1="267.23" y1="-22.28" x2="236.45" y2="8.5"/><line class="cls-3" x1="441.05" y1="135.27" x2="344.25" y2="38.48"/><line class="cls-3" x1="441.05" y1="38.48" x2="344.25" y2="135.27"/><line class="cls-3" x1="441.05" y1="38.43" x2="254.39" y2="-148.22"/><line class="cls-3" x1="441.05" y1="-148.22" x2="254.39" y2="38.43"/><line class="cls-3" x1="235.74" y1="166.06" x2="204.96" y2="135.27"/><line class="cls-3" x1="235.74" y1="135.27" x2="204.96" y2="166.06"/><line class="cls-3" x1="235.74" y1="69.22" x2="204.96" y2="38.43"/><line class="cls-3" x1="235.74" y1="38.43" x2="204.96" y2="69.22"/><line class="cls-3" x1="235.74" y1="117.64" x2="204.96" y2="86.85"/><line class="cls-3" x1="235.74" y1="86.85" x2="204.96" y2="117.64"/><line class="cls-3" x1="31.14" y1="56.42" x2="0.35" y2="25.64"/><line class="cls-3" x1="31.14" y1="25.64" x2="0.35" y2="56.42"/><line class="cls-3" x1="31.14" y1="8.5" x2="0.35" y2="-22.28"/><line class="cls-3" x1="31.14" y1="-22.28" x2="0.35" y2="8.5"/><line class="cls-3" x1="204.96" y1="135.27" x2="108.16" y2="38.48"/><line class="cls-3" x1="204.96" y1="38.48" x2="108.16" y2="135.27"/><line class="cls-3" x1="204.96" y1="38.43" x2="18.3" y2="-148.22"/><line class="cls-3" x1="204.96" y1="-148.22" x2="18.3" y2="38.43"/><line class="cls-3" x1="385.28" y1="389.24" x2="354.49" y2="358.46"/><line class="cls-3" x1="385.28" y1="358.46" x2="354.49" y2="389.24"/><line class="cls-3" x1="385.28" y1="293.39" x2="354.49" y2="262.61"/><line class="cls-3" x1="385.28" y1="262.61" x2="354.49" y2="293.39"/><line class="cls-3" x1="385.28" y1="341.32" x2="354.49" y2="310.53"/><line class="cls-3" x1="385.28" y1="310.53" x2="354.49" y2="341.32"/><line class="cls-3" x1="385.28" y1="245.47" x2="354.49" y2="214.69"/><line class="cls-3" x1="385.28" y1="214.69" x2="354.49" y2="245.47"/><line class="cls-3" x1="385.28" y1="197.55" x2="354.49" y2="166.76"/><line class="cls-3" x1="385.28" y1="166.76" x2="354.49" y2="197.55"/><line class="cls-3" x1="559.09" y1="468.09" x2="462.3" y2="371.3"/><line class="cls-3" x1="559.09" y1="371.3" x2="462.3" y2="468.09"/><line class="cls-3" x1="559.09" y1="371.25" x2="372.44" y2="184.6"/><line class="cls-3" x1="559.09" y1="184.6" x2="372.44" y2="371.25"/><line class="cls-3" x1="353.79" y1="498.87" x2="323" y2="468.09"/><line class="cls-3" x1="353.79" y1="468.09" x2="323" y2="498.87"/><line class="cls-3" x1="353.79" y1="402.04" x2="323" y2="371.25"/><line class="cls-3" x1="353.79" y1="371.25" x2="323" y2="402.04"/><line class="cls-3" x1="353.79" y1="450.45" x2="323" y2="419.67"/><line class="cls-3" x1="353.79" y1="419.67" x2="323" y2="450.46"/><line class="cls-3" x1="149.18" y1="389.24" x2="118.4" y2="358.46"/><line class="cls-3" x1="149.18" y1="358.46" x2="118.4" y2="389.24"/><line class="cls-3" x1="149.18" y1="293.39" x2="118.4" y2="262.61"/><line class="cls-3" x1="149.18" y1="262.61" x2="118.4" y2="293.39"/><line class="cls-3" x1="149.18" y1="341.32" x2="118.4" y2="310.53"/><line class="cls-3" x1="149.18" y1="310.53" x2="118.4" y2="341.32"/><line class="cls-3" x1="149.18" y1="245.47" x2="118.4" y2="214.69"/><line class="cls-3" x1="149.18" y1="214.69" x2="118.4" y2="245.47"/><line class="cls-3" x1="149.18" y1="197.55" x2="118.4" y2="166.76"/><line class="cls-3" x1="149.18" y1="166.76" x2="118.4" y2="197.55"/><line class="cls-3" x1="323" y1="468.09" x2="226.21" y2="371.3"/><line class="cls-3" x1="323" y1="371.3" x2="226.21" y2="468.09"/><line class="cls-3" x1="323" y1="371.25" x2="136.35" y2="184.6"/><line class="cls-3" x1="323" y1="184.6" x2="136.35" y2="371.25"/><line class="cls-3" x1="117.69" y1="498.87" x2="86.91" y2="468.09"/><line class="cls-3" x1="117.69" y1="468.09" x2="86.91" y2="498.87"/><line class="cls-3" x1="117.69" y1="402.04" x2="86.91" y2="371.25"/><line class="cls-3" x1="117.69" y1="371.25" x2="86.91" y2="402.04"/><line class="cls-3" x1="117.69" y1="450.45" x2="86.91" y2="419.67"/><line class="cls-3" x1="117.69" y1="419.67" x2="86.91" y2="450.46"/><line class="cls-3" x1="86.91" y1="468.09" x2="-9.89" y2="371.3"/><line class="cls-3" x1="86.91" y1="371.3" x2="-9.89" y2="468.09"/><line class="cls-3" x1="86.91" y1="371.25" x2="-99.75" y2="184.6"/><line class="cls-3" x1="86.91" y1="184.6" x2="-99.75" y2="371.25"/><line class="cls-3" x1="267.23" y1="626.21" x2="236.45" y2="595.43"/><line class="cls-3" x1="267.23" y1="595.43" x2="236.45" y2="626.21"/><line class="cls-3" x1="267.23" y1="674.14" x2="236.45" y2="643.35"/><line class="cls-3" x1="267.23" y1="643.35" x2="236.45" y2="674.14"/><line class="cls-3" x1="267.23" y1="578.29" x2="236.45" y2="547.5"/><line class="cls-3" x1="267.23" y1="547.5" x2="236.45" y2="578.29"/><line class="cls-3" x1="267.23" y1="530.36" x2="236.45" y2="499.58"/><line class="cls-3" x1="267.23" y1="499.58" x2="236.45" y2="530.36"/><line class="cls-3" x1="441.05" y1="704.07" x2="254.39" y2="517.42"/><line class="cls-3" x1="441.05" y1="517.42" x2="254.39" y2="704.07"/><line class="cls-3" x1="31.14" y1="626.21" x2="0.35" y2="595.43"/><line class="cls-3" x1="31.14" y1="595.43" x2="0.35" y2="626.21"/><line class="cls-3" x1="31.14" y1="674.14" x2="0.35" y2="643.35"/><line class="cls-3" x1="31.14" y1="643.35" x2="0.35" y2="674.14"/><line class="cls-3" x1="31.14" y1="578.29" x2="0.35" y2="547.5"/><line class="cls-3" x1="31.14" y1="547.5" x2="0.35" y2="578.29"/><line class="cls-3" x1="31.14" y1="530.36" x2="0.35" y2="499.58"/><line class="cls-3" x1="31.14" y1="499.58" x2="0.35" y2="530.36"/><line class="cls-3" x1="204.96" y1="704.07" x2="18.3" y2="517.42"/><line class="cls-3" x1="204.96" y1="517.42" x2="18.3" y2="704.07"/></g></pattern></defs><title>Asset 1</title><g id="Layer_2" data-name="Layer 2"><g id="Layer_1-2" data-name="Layer 1"><g id="background_gradient" data-name="background gradient"><g class="cls-4"><rect class="cls-5" width="1366" height="4859.87"/></g></g><rect id="backgrou_glyphs" data-name="backgrou glyphs" class="cls-6" width="1366" height="4859.87"/></g></g></svg>