<svg id="Layer_1" data-name="Layer 1" xmlns="http://www.w3.org/2000/svg" viewBox="0 0 1475 315"><defs><style>.cls-1{fill:#25408e;}.cls-2{opacity:0.18;}.cls-3{fill:#fff;fill-rule:evenodd;}</style></defs><title>blue_glasses_newcolor</title><g id="blue-glasses"><rect id="Rectangle-Copy-41" class="cls-1" width="2093" height="432"/><g id="Group-24-Copy-8" class="cls-2"><polygon id="Triangle" class="cls-3" points="69 104 0 0 138 0 69 104"/><polygon id="Triangle-Copy-9" class="cls-3" points="490 104 421 0 559 0 490 104"/><polygon id="Triangle-Copy-4" class="cls-3" points="138 210 69 104 207 104 138 210"/><polygon id="Triangle-Copy-11" class="cls-3" points="559 210 490 104 628 104 559 210"/><polygon id="Triangle-Copy-19" class="cls-3" points="628 315 559 209 697 209 628 315"/><polygon id="Triangle-Copy-20" class="cls-3" points="767 315 698 209 836 209 767 315"/><polygon id="Triangle-Copy-7" class="cls-3" points="279 210 208 104 350 104 279 210"/><polygon id="Triangle-Copy-12" class="cls-3" points="699 210 628 104 770 104 699 210"/><polygon id="Triangle-Copy-21" class="cls-3" points="836 210 765 104 907 104 836 210"/><polygon id="Triangle-Copy-23" class="cls-3" points="907 106 836 0 978 0 907 106"/><polygon id="Triangle-Copy-22" class="cls-3" points="770 106 699 0 841 0 770 106"/><polygon id="Triangle-Copy-24" class="cls-3" points="1049 106 978 0 1120 0 1049 106"/><polygon id="Triangle-Copy-28" class="cls-3" points="1191 106 1120 0 1262 0 1191 106"/><polygon id="Triangle-Copy-29" class="cls-3" points="1333 106 1262 0 1404 0 1333 106"/><polygon id="Triangle-Copy-25" class="cls-3" points="1404 210 1333 104 1475 104 1404 210"/><polygon id="Triangle-Copy-6" class="cls-3" points="209 315 139 209 279 209 209 315"/><polygon id="Triangle-Copy-13" class="cls-3" points="420 210 350 104 490 104 420 210"/><polygon id="Triangle-Copy-16" class="cls-3" points="349 315 279 209 419 209 349 315"/><polygon id="Triangle-Copy-5" class="cls-3" points="209 104 138 0 280 0 209 104"/><polygon id="Triangle-Copy-15" class="cls-3" points="350 104 279 0 421 0 350 104"/><polygon id="Triangle-Copy-14" class="cls-3" points="630 104 559 0 701 0 630 104"/></g></g></svg>