<?xml version="1.0" encoding="UTF-8"?>
<svg width="116px" height="46px" viewBox="0 0 116 46" version="1.1" xmlns="http://www.w3.org/2000/svg" xmlns:xlink="http://www.w3.org/1999/xlink">
    <title>Group 27</title>
    <defs>
        <polygon id="path-1" points="0.1492 0.8023 12.2112 0.8023 12.2112 15 0.1492 15"></polygon>
        <polygon id="path-3" points="0.8331 0.0351752714 17.134 0.0351752714 17.134 20.0705561 0.8331 20.0705561"></polygon>
    </defs>
    <g id="Page-1" stroke="none" stroke-width="1" fill="none" fill-rule="evenodd">
        <g id="Group-27">
            <g id="Group-3" transform="translate(58.000000, 29.695900)">
                <mask id="mask-2" fill="white">
                    <use xlink:href="#path-1"></use>
                </mask>
                <g id="Clip-2"></g>
                <path d="M8.6212,11.2303 L7.3942,9.3843 L6.2612,10.1383 L7.3962,11.8453 C7.0162,11.9593 6.6102,12.0233 6.1802,12.0233 C3.6752,12.0233 1.9392,10.0013 1.9392,7.0663 C1.9392,4.1313 3.6752,2.1103 6.1802,2.1103 C8.7032,2.1103 10.4212,4.1313 10.4212,7.0663 C10.4212,8.9023 9.7422,10.3793 8.6212,11.2303 M12.2112,7.0663 C12.2112,3.4523 9.6702,0.8023 6.1802,0.8023 C2.6902,0.8023 0.1492,3.4523 0.1492,7.0663 C0.1492,10.6813 2.6902,13.3113 6.1802,13.3113 C6.8852,13.3113 7.5482,13.2003 8.1622,12.9993 L9.4932,15.0003 L10.6262,14.2473 L9.4102,12.4173 C11.1282,11.3533 12.2112,9.4213 12.2112,7.0663" id="Fill-1" fill="#494949" mask="url(#mask-2)"></path>
            </g>
            <path d="M74.8614,37.7103 L76.6504,32.8603 L78.3334,37.7103 L74.8614,37.7103 Z M75.8644,30.8033 L71.2114,42.7213 L72.9644,42.7213 L74.3604,39.0703 L78.8354,39.0703 L80.1404,42.7213 L81.8764,42.7213 L77.5274,30.8033 L75.8644,30.8033 Z" id="Fill-4" fill="#494949"></path>
            <polygon id="Fill-6" fill="#494949" points="82.0118 32.2347 85.7348 32.2347 85.7348 42.7207 87.3808 42.7207 87.3808 32.2347 91.0488 32.2347 91.0488 30.8037 82.0118 30.8037"></polygon>
            <path d="M94.8721,37.7103 L96.6611,32.8603 L98.3431,37.7103 L94.8721,37.7103 Z M95.8741,30.8033 L91.2221,42.7213 L92.9751,42.7213 L94.3701,39.0703 L98.8451,39.0703 L100.1501,42.7213 L101.8871,42.7213 L97.5381,30.8033 L95.8741,30.8033 Z" id="Fill-8" fill="#494949"></path>
            <path d="M106.0001,36.2972 L106.0001,32.1632 L109.6871,32.1632 C111.1721,32.1632 112.0301,32.9502 112.0301,34.3112 C112.0301,35.6522 111.2791,36.2972 109.7051,36.2972 L106.0001,36.2972 Z M110.8501,37.5312 C111.6381,37.3882 111.9231,37.2992 112.3891,37.0132 C113.2301,36.4942 113.7131,35.5092 113.7131,34.2392 C113.7131,32.0552 112.2101,30.8032 109.5791,30.8032 L104.3721,30.8032 L104.3721,42.7212 L106.0001,42.7212 L106.0001,37.6752 L109.1321,37.6752 L112.3711,42.7212 L114.2501,42.7212 L110.8501,37.5312 Z" id="Fill-10" fill="#494949"></path>
            <polygon id="Fill-12" fill="#494949" points="14.3233 5.1947 9.9683 18.9117 9.9153 18.9117 5.7963 5.1947 0.0003 5.1947 6.5323 24.1317 12.8003 24.1317 19.5423 5.1947"></polygon>
            <path d="M50.4805,5.1869 L50.4805,16.8089 C50.4025,19.2269 49.4005,20.7519 46.9285,20.7519 C44.4585,20.7519 43.4565,19.2269 43.3765,16.8089 L43.3765,5.1869 L38.1185,5.1869 L38.1185,17.2009 C38.1705,22.4859 42.1435,24.5629 46.9285,24.5629 C51.7135,24.5629 55.6855,22.4859 55.7385,17.2009 L55.7385,5.1869 L50.4805,5.1869 Z" id="Fill-14" fill="#494949"></path>
            <path d="M27.8712,20.8637 C24.8922,20.8637 24.2872,17.5947 24.2872,14.8267 C24.2872,11.9867 24.8382,8.4397 27.8492,8.4217 C29.9882,8.4307 30.7532,9.4037 30.8842,11.1097 L36.4212,11.1097 C36.4982,6.4687 32.2092,4.8377 27.7542,4.7347 C21.8992,4.8337 18.7492,8.2787 18.7492,14.6157 C18.7492,20.9967 21.9392,24.5557 27.8712,24.5557 C28.0162,24.5557 28.1602,24.5537 28.3042,24.5507 C32.7362,24.4467 36.5502,22.7177 36.4732,18.0697 L30.9362,18.0697 C30.8312,19.8887 30.0872,20.8637 27.8712,20.8637" id="Fill-16" fill="#494949"></path>
            <path d="M94.9503,18.3754 L94.9503,9.4354 L97.7353,9.4354 L97.7353,5.1684 L94.9503,5.1684 L94.9503,0.0004 L89.6253,1.3644 L89.6253,18.5174 C89.6253,18.5514 89.6293,18.5864 89.6293,18.6214 C89.6703,22.3484 90.6123,24.4334 94.6943,24.4334 C95.2313,24.4334 96.8443,24.3054 97.9413,24.1274 L97.9413,20.1144 L96.6153,20.1144 C95.4683,20.1144 94.9503,19.4854 94.9503,18.3754" id="Fill-18" fill="#494949"></path>
            <path d="M81.6505,8.5775 L81.5765,8.5775 L81.4635,5.1845 L76.7895,5.1845 L76.7895,24.1285 L82.1355,24.1285 L82.1355,14.9055 L82.1345,14.9035 C82.1345,14.8975 82.1355,14.8915 82.1355,14.8865 L82.1355,14.8445 L82.1365,14.8445 C82.1525,11.4155 83.5025,9.4455 87.5925,9.4455 L88.0265,9.4455 L88.0265,4.9615 C85.2295,4.8865 82.8435,5.6325 81.6505,8.5775" id="Fill-20" fill="#494949"></path>
            <path d="M66.0079,20.8353 L66.0059,20.8223 C65.9459,20.8253 65.8909,20.8353 65.8279,20.8353 C64.3309,20.8353 63.2119,19.8123 63.1149,18.3553 C63.1149,15.5353 66.5879,15.3833 68.6279,15.4043 C68.7689,15.4053 68.9919,15.4063 69.2149,15.4073 C69.2309,18.4133 69.5479,20.8353 66.0079,20.8353 M68.7749,4.8923 C68.7649,4.8903 68.7549,4.8893 68.7439,4.8873 C68.6369,4.8703 68.5299,4.8543 68.4219,4.8403 C68.4059,4.8373 68.3899,4.8363 68.3729,4.8343 C68.2719,4.8203 68.1699,4.8093 68.0679,4.7983 C68.0259,4.7943 67.9829,4.7913 67.9409,4.7873 C67.8639,4.7793 67.7889,4.7733 67.7129,4.7673 C67.6449,4.7623 67.5759,4.7593 67.5069,4.7553 C67.4569,4.7513 67.4069,4.7483 67.3569,4.7453 C67.2549,4.7403 67.1539,4.7363 67.0529,4.7343 C67.0349,4.7343 67.0189,4.7323 67.0019,4.7323 C66.8829,4.7303 66.7649,4.7293 66.6479,4.7293 L66.6409,4.7293 C64.3629,4.7293 62.6729,5.3003 61.3489,6.0753 C59.7589,6.9893 58.9369,8.5063 58.9029,10.5813 L63.9629,10.5813 C63.8889,9.7253 64.5229,7.8973 66.4609,7.8973 C66.4629,7.8973 66.4649,7.8973 66.4669,7.8973 C66.4829,7.8973 66.5379,7.8973 66.6159,7.8973 L66.6179,7.8973 L66.8219,7.8973 C66.8459,7.8973 66.8579,7.9053 66.8749,7.9093 C68.6429,8.0383 69.1889,9.4613 69.1889,10.2093 L69.1889,10.9963 L69.1919,10.9963 L69.1919,12.1573 C68.8319,12.1523 68.2639,12.1503 68.0129,12.1503 C66.2439,12.1473 64.2479,12.2993 62.5039,12.8823 C62.2419,12.9713 61.9849,13.0653 61.7369,13.1723 L61.7319,13.1753 C61.3079,13.3563 60.9269,13.5643 60.5859,13.7933 C59.5629,14.4793 58.8949,15.3423 58.4649,16.1943 C58.3209,16.4793 58.2039,16.7623 58.1109,17.0373 C57.9679,17.4493 57.8759,17.8443 57.8199,18.1953 C57.7629,18.5483 57.7459,18.8563 57.7459,19.1013 C57.7949,20.8603 58.4619,22.2263 59.5449,23.1503 C59.5489,23.1543 59.5549,23.1583 59.5589,23.1613 C59.6899,23.2733 59.8249,23.3773 59.9679,23.4753 C59.9829,23.4843 59.9969,23.4933 60.0109,23.5023 C60.1459,23.5933 60.2829,23.6803 60.4279,23.7593 C60.4529,23.7733 60.4819,23.7843 60.5069,23.7983 C60.6429,23.8703 60.7799,23.9393 60.9229,24.0013 C60.9629,24.0193 61.0059,24.0323 61.0479,24.0493 C61.1799,24.1033 61.3129,24.1553 61.4499,24.2013 C61.5109,24.2213 61.5729,24.2353 61.6339,24.2533 C61.7579,24.2903 61.8819,24.3273 62.0099,24.3573 C62.0919,24.3773 62.1789,24.3913 62.2629,24.4073 C62.3739,24.4293 62.4839,24.4533 62.5979,24.4723 C62.7129,24.4883 62.8329,24.4993 62.9519,24.5123 C63.0389,24.5213 63.1239,24.5333 63.2119,24.5403 C63.4219,24.5563 63.6349,24.5643 63.8519,24.5643 C63.9459,24.5643 64.0379,24.5603 64.1299,24.5573 L64.1299,24.5633 C66.4009,24.5583 68.1899,23.8303 69.4459,22.1163 L69.9339,24.1253 L74.6259,24.1253 L74.6259,11.6743 C74.5999,7.1443 71.8259,5.3903 68.7749,4.8923" id="Fill-22" fill="#494949"></path>
            <g id="Group-26" transform="translate(98.000000, 4.695900)">
                <mask id="mask-4" fill="white">
                    <use xlink:href="#path-3"></use>
                </mask>
                <g id="Clip-25"></g>
                <path d="M11.1641,7.9431 C11.1401,7.9371 11.1161,7.9301 11.0921,7.9241 C8.2221,7.1661 7.7081,7.0721 7.1721,6.7471 C6.7361,6.5261 6.4681,6.0951 6.4561,5.5941 C6.4301,4.6061 7.4411,3.8361 8.8071,3.8001 C10.2101,3.7561 11.0521,4.2491 11.4541,5.3541 C11.5401,5.6051 11.6071,5.8681 11.6521,6.1361 L16.4761,6.1361 L16.4671,5.9851 C16.1101,2.2621 13.6441,0.2371 9.5991,0.0491 C9.3311,0.0371 9.0581,0.0321 8.7761,0.0371 C8.7761,0.0371 8.7761,0.0381 8.7751,0.0381 C8.7741,0.0381 8.7731,0.0371 8.7711,0.0371 C4.2431,0.1571 1.3151,2.5401 1.4091,6.2321 C1.4091,10.1291 4.7371,10.8841 6.8581,11.4751 C6.8751,11.4801 6.8931,11.4851 6.9101,11.4901 C10.1991,12.3781 10.1991,12.3781 10.7411,12.5941 C11.6921,12.9681 11.9681,13.2511 11.9921,13.8891 C11.9901,14.9791 10.9641,15.6811 9.2941,15.7241 L9.2901,15.7141 C9.2311,15.7181 9.1741,15.7231 9.1131,15.7241 C6.9411,15.7761 5.9521,14.9941 5.7241,13.0261 L0.8331,13.0261 C0.8331,13.0911 0.8351,13.1561 0.8371,13.2201 C0.8471,13.6291 0.8831,14.0181 0.9421,14.3911 C0.9621,14.5141 0.9851,14.6361 1.0101,14.7551 C1.0101,14.7561 1.0101,14.7571 1.0111,14.7581 C1.0361,14.8771 1.0631,14.9941 1.0941,15.1091 C1.0941,15.1101 1.0941,15.1111 1.0951,15.1131 C1.1251,15.2271 1.1581,15.3401 1.1931,15.4511 C1.1931,15.4521 1.1941,15.4541 1.1941,15.4541 C1.2301,15.5651 1.2681,15.6741 1.3091,15.7821 L1.3091,15.7841 C1.3501,15.8901 1.3931,15.9971 1.4381,16.1001 C1.4451,16.1161 1.4521,16.1311 1.4581,16.1461 C1.4901,16.2151 1.5221,16.2851 1.5561,16.3521 C1.5881,16.4171 1.6191,16.4801 1.6531,16.5431 C1.6621,16.5591 1.6711,16.5771 1.6801,16.5921 L1.6811,16.5931 C2.1371,17.4221 2.7661,18.1011 3.5351,18.6341 C3.5401,18.6371 3.5451,18.6411 3.5501,18.6441 C4.0051,18.9581 4.5091,19.2191 5.0561,19.4291 C5.0741,19.4371 5.0931,19.4441 5.1111,19.4511 C5.1861,19.4791 5.2631,19.5061 5.3401,19.5331 C5.3661,19.5431 5.3931,19.5501 5.4191,19.5601 C5.4931,19.5851 5.5681,19.6081 5.6431,19.6311 C5.6731,19.6401 5.7011,19.6481 5.7301,19.6571 C5.9601,19.7231 6.1951,19.7821 6.4361,19.8331 C6.4911,19.8431 6.5471,19.8561 6.6021,19.8671 C6.6581,19.8771 6.7141,19.8861 6.7701,19.8961 C6.8331,19.9071 6.8951,19.9191 6.9601,19.9281 C7.0131,19.9361 7.0661,19.9441 7.1201,19.9521 C7.1891,19.9621 7.2601,19.9701 7.3301,19.9791 C7.3801,19.9851 7.4291,19.9911 7.4791,19.9971 C7.5601,20.0061 7.6411,20.0121 7.7221,20.0201 C7.7641,20.0231 7.8061,20.0281 7.8471,20.0311 C7.9721,20.0411 8.0971,20.0481 8.2241,20.0541 C8.5121,20.0691 8.8081,20.0731 9.1111,20.0691 L9.1111,20.0681 L9.1141,20.0681 L9.1151,20.0691 C9.1181,20.0681 9.1191,20.0681 9.1221,20.0681 C9.2791,20.0641 9.4341,20.0571 9.5871,20.0491 C9.6371,20.0471 9.6851,20.0431 9.7331,20.0391 C9.8391,20.0321 9.9431,20.0251 10.0471,20.0171 C10.1021,20.0121 10.1571,20.0061 10.2131,20.0011 C10.3081,19.9921 10.4031,19.9821 10.4971,19.9711 C10.5531,19.9641 10.6081,19.9581 10.6631,19.9501 C10.7551,19.9381 10.8461,19.9261 10.9351,19.9131 C10.9901,19.9051 11.0431,19.8961 11.0971,19.8871 C11.1861,19.8731 11.2751,19.8571 11.3641,19.8411 C11.4151,19.8321 11.4651,19.8221 11.5161,19.8121 C11.6041,19.7941 11.6941,19.7751 11.7811,19.7561 C11.8281,19.7461 11.8741,19.7351 11.9211,19.7241 C12.0111,19.7021 12.1001,19.6801 12.1871,19.6571 C12.2301,19.6451 12.2711,19.6341 12.3121,19.6231 C12.4041,19.5971 12.4951,19.5711 12.5851,19.5441 C12.6201,19.5321 12.6561,19.5211 12.6921,19.5091 C12.7871,19.4791 12.8801,19.4481 12.9721,19.4151 C13.0001,19.4041 13.0291,19.3941 13.0581,19.3831 C13.1581,19.3461 13.2571,19.3081 13.3531,19.2671 C13.3721,19.2601 13.3921,19.2531 13.4101,19.2461 C13.5211,19.1981 13.6311,19.1491 13.7381,19.0981 C13.7421,19.0971 13.7451,19.0951 13.7481,19.0941 C14.3181,18.8221 14.8251,18.4941 15.2621,18.1111 C16.4641,17.0561 17.1341,15.5821 17.1341,13.6981 L17.1341,13.6961 C17.1341,9.6071 13.6921,8.6111 11.1641,7.9431" id="Fill-24" fill="#494949" mask="url(#mask-4)"></path>
            </g>
        </g>
    </g>
</svg>