<svg height="4" viewBox="0 0 684 4" width="684" xmlns="http://www.w3.org/2000/svg" xmlns:xlink="http://www.w3.org/1999/xlink"><linearGradient id="a" x1="-2.611263%" x2="101.741622%" y1="50%" y2="50%"><stop offset="0" stop-color="#fdbd10"/><stop offset="1" stop-color="#eb008c"/></linearGradient><mask id="b" fill="#fff"><path d="m671.068 4h11.966v-4h-11.966zm-23.932 0h11.965v-4h-11.965zm-23.932 0h11.966v-4h-11.966zm-23.933 0h11.966v-4h-11.966zm-23.932 0h11.966v-4h-11.966zm-23.931 0h11.966v-4h-11.966zm-23.933 0h11.966v-4h-11.966zm-23.932 0h11.965v-4h-11.965zm-23.933 0h11.966v-4h-11.966zm-23.931 0h11.965v-4h-11.965zm-23.933 0h11.965v-4h-11.965zm-23.932 0h11.966v-4h-11.966zm-23.932 0h11.966v-4h-11.966zm-23.933 0h11.967v-4h-11.967zm-23.932 0h11.966v-4h-11.966zm-23.932 0h11.966v-4h-11.966zm-23.932 0h11.966v-4h-11.966zm-23.933 0h11.966v-4h-11.966zm-23.932 0h11.966v-4h-11.966zm-23.932 0h11.966v-4h-11.966zm-23.932 0h11.966v-4h-11.966zm-23.932 0h11.966v-4h-11.966zm-23.932 0h11.966v-4h-11.966zm-23.933 0h11.966v-4h-11.966zm-23.932 0h11.965v-4h-11.965zm-23.933 0h11.966v-4h-11.966zm-23.931 0h11.966v-4h-11.966zm-23.932 0h11.966v-4h-11.966zm-23.932 0h11.965v-4h-11.965z" fill="#fff" fill-rule="evenodd"/></mask><path d="m671.068 4h11.966v-4h-11.966zm-23.932 0h11.965v-4h-11.965zm-23.932 0h11.966v-4h-11.966zm-23.933 0h11.966v-4h-11.966zm-23.932 0h11.966v-4h-11.966zm-23.931 0h11.966v-4h-11.966zm-23.933 0h11.966v-4h-11.966zm-23.932 0h11.965v-4h-11.965zm-23.933 0h11.966v-4h-11.966zm-23.931 0h11.965v-4h-11.965zm-23.933 0h11.965v-4h-11.965zm-23.932 0h11.966v-4h-11.966zm-23.932 0h11.966v-4h-11.966zm-23.933 0h11.967v-4h-11.967zm-23.932 0h11.966v-4h-11.966zm-23.932 0h11.966v-4h-11.966zm-23.932 0h11.966v-4h-11.966zm-23.933 0h11.966v-4h-11.966zm-23.932 0h11.966v-4h-11.966zm-23.932 0h11.966v-4h-11.966zm-23.932 0h11.966v-4h-11.966zm-23.932 0h11.966v-4h-11.966zm-23.932 0h11.966v-4h-11.966zm-23.933 0h11.966v-4h-11.966zm-23.932 0h11.965v-4h-11.965zm-23.933 0h11.966v-4h-11.966zm-23.931 0h11.966v-4h-11.966zm-23.932 0h11.966v-4h-11.966zm-23.932 0h11.965v-4h-11.965z" fill="url(#a)" fill-rule="evenodd" mask="url(#b)"/></svg>