<svg height="111" viewBox="0 0 145 111" width="145" xmlns="http://www.w3.org/2000/svg"><g fill="none" fill-rule="evenodd" stroke="#25408e" transform="translate(2 2)"><path d="m70.5 0 70.5 107h-141z" stroke-width="2"/><g stroke-width="3"><g transform="translate(50 43)"><path d="m22.9729553 1.118686 17 9.6391753c1.2528214.7103626 2.0270447 2.0393756 2.0270447 3.4795757v19.153992c0 1.4402001-.7742233 2.7692131-2.0270447 3.4795757l-17 9.6391753c-1.2237855.693899-2.7221251.693899-3.9459106 0l-17.00000002-9.6391753c-1.25282136-.7103626-2.02704468-2.0393756-2.02704468-3.4795757v-19.153992c0-1.4402001.77422332-2.7692131 2.02704468-3.4795757l17.00000002-9.6391753c1.2237855-.69389901 2.7221251-.69389901 3.9459106 0z" stroke-linejoin="round"/><path d="m1.10526316 12.3616904 17.91342864 8.9355511c1.1134656.5554173 2.4219919.5610282 3.5401796.0151801l18.3358654-8.9507312"/><path d="m20.81579 21.451169v25.08696"/></g><path d="m61.257732 49.061856 19.917526 10.824742"/></g></g></svg>