<svg height="110" viewBox="0 0 145 110" width="145" xmlns="http://www.w3.org/2000/svg"><g fill="none" fill-rule="evenodd" transform="matrix(-1 0 0 -1 143 109)"><path d="m70.5 0 70.5 107h-141z" fill="#25408e" stroke="#25408e" stroke-width="2" transform="matrix(-1 0 0 -1 141 107)"/><g stroke="#fff" stroke-linejoin="round" stroke-width="3" transform="translate(45 20.259259)"><path d="m25.1403296 5.63143383c3.7401478 0 6.2206603-1.87714461 7.4415375-5.63143383-2.4917418.44171125-4.9722543.66075807-7.4415375.65714045-2.4916411-.00365038-4.9721536-.2226972-7.4415376-.65714045 1.2208773 3.75428922 3.7013898 5.63143383 7.4415376 5.63143383z"/><g stroke-linecap="round"><path d="m17.2431236 0-17.2431236 5.38754197 2.86872662 9.27264263 7.67044688-1.102802v26.2648995h14.4000334"/><path d="m42.1823305 0-17.2431236 5.38754197 2.8687267 9.27264263 7.6704468-1.102802v26.2648995h14.4000335" transform="matrix(-1 0 0 1 74.81762 0)"/></g></g></g></svg>