<?xml version="1.0" encoding="UTF-8"?>
<svg width="2093px" height="655px" viewBox="0 0 2093 655" version="1.1" xmlns="http://www.w3.org/2000/svg" xmlns:xlink="http://www.w3.org/1999/xlink">
    <title>Page 1</title>
    <defs>
        <radialGradient cx="28.6246366%" cy="-250.303819%" fx="28.6246366%" fy="-250.303819%" r="527.71465%" gradientTransform="translate(0.286246,-2.503038),scale(0.312948,1.000000),rotate(56.536537),scale(1.000000,0.945156),translate(-0.286246,2.503038)" id="radialGradient-1">
            <stop stop-color="#0033EB" offset="0%"></stop>
            <stop stop-color="#CD2C7C" offset="48.2122265%"></stop>
            <stop stop-color="#FD8A00" offset="77.6561154%"></stop>
            <stop stop-color="#177E2A" offset="100%"></stop>
        </radialGradient>
        <radialGradient cx="28.6246366%" cy="-250.303819%" fx="28.6246366%" fy="-250.303819%" r="463.792473%" gradientTransform="translate(0.286246,-2.503038),scale(0.624060,1.000000),rotate(71.661883),scale(1.000000,0.945156),translate(-0.286246,2.503038)" id="radialGradient-2">
            <stop stop-color="#0033EB" offset="0%"></stop>
            <stop stop-color="#CD2C7C" offset="48.2122265%"></stop>
            <stop stop-color="#FD8A00" offset="77.6561154%"></stop>
            <stop stop-color="#177E2A" offset="100%"></stop>
        </radialGradient>
    </defs>
    <g id="Page-1" stroke="none" stroke-width="1" fill="none" fill-rule="evenodd">
        <rect id="BG-Background" fill="#F8F8F8" x="0" y="-3135" width="2093" height="10840"></rect>
        <rect id="Rectangle-Copy-24" fill="url(#radialGradient-1)" x="0" y="0" width="2093" height="655"></rect>
        <g id="Group-29-Copy" fill="url(#radialGradient-2)">
            <rect id="Rectangle-Copy-25" transform="translate(67.500000, 41.500000) scale(1, -1) translate(-67.500000, -41.500000) " x="1" y="0" width="133" height="83"></rect>
            <rect id="Rectangle-Copy-31" fill-opacity="0.75" transform="translate(199.500000, 41.500000) scale(1, -1) translate(-199.500000, -41.500000) " x="133" y="0" width="133" height="83"></rect>
            <rect id="Rectangle-Copy-32" fill-opacity="0.5" transform="translate(332.500000, 41.500000) scale(1, -1) translate(-332.500000, -41.500000) " x="266" y="0" width="133" height="83"></rect>
            <rect id="Rectangle-Copy-33" fill-opacity="0.75" transform="translate(66.500000, 124.500000) scale(1, -1) translate(-66.500000, -124.500000) " x="0" y="83" width="133" height="83"></rect>
            <rect id="Rectangle-Copy-34" fill-opacity="0.5" transform="translate(200.500000, 124.500000) scale(1, -1) translate(-200.500000, -124.500000) " x="134" y="83" width="133" height="83"></rect>
        </g>
        <g id="Group-28-Copy" transform="translate(737.500000, 572.000000) rotate(-180.000000) translate(-737.500000, -572.000000) translate(538.000000, 489.000000)" fill="url(#radialGradient-2)">
            <rect id="Rectangle-Copy-35" transform="translate(67.500000, 41.500000) scale(1, -1) translate(-67.500000, -41.500000) " x="1" y="0" width="133" height="83"></rect>
            <rect id="Rectangle-Copy-36" opacity="0.747279576" transform="translate(199.500000, 41.500000) scale(1, -1) translate(-199.500000, -41.500000) " x="133" y="0" width="133" height="83"></rect>
            <rect id="Rectangle-Copy-37" opacity="0.5" transform="translate(332.500000, 41.500000) scale(1, -1) translate(-332.500000, -41.500000) " x="266" y="0" width="133" height="83"></rect>
            <rect id="Rectangle-Copy-38" opacity="0.747279576" transform="translate(66.500000, 124.500000) scale(1, -1) translate(-66.500000, -124.500000) " x="0" y="83" width="133" height="83"></rect>
            <rect id="Rectangle-Copy-39" opacity="0.5" transform="translate(200.500000, 124.500000) scale(1, -1) translate(-200.500000, -124.500000) " x="134" y="83" width="133" height="83"></rect>
        </g>
    </g>
</svg>