<?xml version="1.0" encoding="UTF-8"?>
<svg width="142px" height="109px" viewBox="0 0 142 109" version="1.1" xmlns="http://www.w3.org/2000/svg" xmlns:xlink="http://www.w3.org/1999/xlink">
    <title>Page 1</title>
    <g id="product-svg" stroke="none" stroke-width="1" fill="none" fill-rule="evenodd">
        <polygon id="Stroke-1" stroke="#25408E" stroke-width="1.147" points="140.7045 107.4909 1.0615 107.4909 70.2755 1.8479"></polygon>
        <path d="M88.8061,77.3356 C88.8051,78.5226 88.6041,79.6586 87.4651,80.3116 C82.4001,83.2126 77.3221,86.0926 71.8531,89.2056 C71.8531,82.3626 71.8631,75.9736 71.8400811,69.5836 C71.8371,68.7786 72.1921,68.4076 72.8811,68.0786 C77.7321,65.7536 82.5791,63.4206 87.3881,61.0116 C88.6771,60.3666 88.8331,60.8136 88.827261,61.9816 C88.7931,67.0996 88.8121,72.2176 88.8061,77.3356 M69.1531,65.5626 C64.2261,63.1226 59.3101,60.6596 54.0771,58.0486 C56.3561,56.7456 58.3781,55.5876 60.4051,54.4356 C60.8531,54.1806 61.3091,54.2236 61.7521,54.4656 C66.7601,57.1906 71.7681,59.9166 77.1671,62.8566 C75.1281,63.8556 73.4981,64.6466 71.8751,65.4526 C70.9791,65.8976 70.0551,66.0086 69.1531,65.5626 M69.0181,78.6246 C69.0161,81.5196 68.9971,84.4136 69.0261,87.3086 C69.0361,88.3906 68.9851,89.0616 67.6311,88.2766 C63.1521,85.6816 58.6381,83.1456 54.1241,80.6076 C52.9531,79.9486 52.3841,79.0096 52.3841,77.6616 C52.3821,72.4106 52.3681,67.1606 52.3271,61.9096 C52.3201,60.8596 52.4541,60.3746 53.6601,60.9856 C58.4541,63.4166 63.2741,65.8026 68.1101,68.1506 C68.9571,68.5636 69.0341,69.1586 69.0281,69.9406 C69.0071,72.8356 69.0201,75.7306 69.0181,78.6246 M69.3811,49.3846 C70.0731,49.0006 70.8311,48.8956 71.5141,49.2746 C76.6111,52.1076 81.6891,54.9746 87.0911,58.0096 C84.8351,59.1156 82.9251,60.0366 81.0321,60.9886 C80.4841,61.2646 80.0281,61.1766 79.5151,60.8966 C74.4401,58.1256 69.3561,55.3716 63.9311,52.4266 C65.9921,51.2756 67.6851,50.3276 69.3811,49.3846 M91.4991,59.1736 C90.8651,57.3636 89.5991,56.1546 87.9451,55.2326 C83.3051,52.6506 78.6681,50.0626 74.0871,47.3786 C71.6911,45.9746 69.4661,45.9686 67.0681,47.3736 C62.4871,50.0576 57.8501,52.6456 53.2111,55.2286 C51.5571,56.1486 50.2811,57.3466 49.6721,59.1746 C49.6701,65.9206 49.6691,72.6666 49.6681,79.4126 C49.7971,81.1926 51.1391,82.0926 52.4341,82.8496 C57.4941,85.8066 62.6151,88.6616 67.7161,91.5476 C69.6421,92.6356 71.5771,92.6016 73.4931,91.5186 C78.5371,88.6666 83.5841,85.8206 88.6151,82.9446 C90.5881,81.8156 91.6011,80.0856 91.5892054,77.7856 C91.5591,71.5816 91.5291,65.3776 91.4991,59.1736" id="Fill-3" fill="#25408E"></path>
    </g>
</svg>