<?xml version="1.0" encoding="UTF-8"?>
<svg width="142px" height="108px" viewBox="0 0 142 108" version="1.1" xmlns="http://www.w3.org/2000/svg" xmlns:xlink="http://www.w3.org/1999/xlink">
    <title>Page 1</title>
    <g id="products-blue-svg" stroke="none" stroke-width="1" fill="none" fill-rule="evenodd">
        <polygon id="product-blue-stroke" stroke="#25408E" stroke-width="1.147" fill="#25408E" points="140.643 106.643 1 106.643 70.214 1"></polygon>
        <path d="M88.7446,76.4877 C88.7436,77.6747 88.5426,78.8107 87.4036,79.4637 C82.3386,82.3647 77.2606,85.2447 71.7916,88.3577 C71.7916,81.5147 71.8016,75.1257 71.7785811,68.7357 C71.7756,67.9307 72.1306,67.5597 72.8196,67.2307 C77.6706,64.9057 82.5176,62.5727 87.3266,60.1637 C88.6156,59.5187 88.7716,59.9657 88.765761,61.1337 C88.7316,66.2517 88.7506,71.3697 88.7446,76.4877 M69.0916,64.7147 C64.1646,62.2747 59.2486,59.8117 54.0156,57.2007 C56.2946,55.8977 58.3166,54.7397 60.3436,53.5877 C60.7916,53.3327 61.2476,53.3757 61.6906,53.6177 C66.6986,56.3427 71.7066,59.0687 77.1056,62.0087 C75.0666,63.0077 73.4366,63.7987 71.8136,64.6047 C70.9176,65.0497 69.9936,65.1607 69.0916,64.7147 M68.9566,77.7767 C68.9546,80.6717 68.9356,83.5657 68.9646,86.4607 C68.9746,87.5427 68.9236,88.2137 67.5696,87.4287 C63.0906,84.8337 58.5766,82.2977 54.0626,79.7597 C52.8916,79.1007 52.3226,78.1617 52.3226,76.8137 C52.3206,71.5627 52.3066,66.3127 52.2656,61.0617 C52.2586,60.0117 52.3926,59.5267 53.5986,60.1377 C58.3926,62.5687 63.2126,64.9547 68.0486,67.3027 C68.8956,67.7157 68.9726,68.3107 68.9666,69.0927 C68.9456,71.9877 68.9586,74.8827 68.9566,77.7767 M69.3196,48.5367 C70.0116,48.1527 70.7696,48.0477 71.4526,48.4267 C76.5496,51.2597 81.6276,54.1267 87.0296,57.1617 C84.7736,58.2677 82.8636,59.1887 80.9706,60.1407 C80.4226,60.4167 79.9666,60.3287 79.4536,60.0487 C74.3786,57.2777 69.2946,54.5237 63.8696,51.5787 C65.9306,50.4277 67.6236,49.4797 69.3196,48.5367 M91.4376,58.3257 C90.8036,56.5157 89.5376,55.3067 87.8836,54.3847 C83.2436,51.8027 78.6066,49.2147 74.0256,46.5307 C71.6296,45.1267 69.4046,45.1207 67.0066,46.5257 C62.4256,49.2097 57.7886,51.7977 53.1496,54.3807 C51.4956,55.3007 50.2196,56.4987 49.6106,58.3267 C49.6086,65.0727 49.6076,71.8187 49.6066,78.5647 C49.7356,80.3447 51.0776,81.2447 52.3726,82.0017 C57.4326,84.9587 62.5536,87.8137 67.6546,90.6997 C69.5806,91.7877 71.5156,91.7537 73.4316,90.6707 C78.4756,87.8187 83.5226,84.9727 88.5536,82.0967 C90.5266,80.9677 91.5396,79.2377 91.5277054,76.9377 C91.4976,70.7337 91.4676,64.5297 91.4376,58.3257" id="Fill-3" fill="#FFFFFF" transform="translate(70.567153, 68.487159) scale(1, -1) translate(-70.567153, -68.487159) "></path>
    </g>
</svg>