<svg id="Layer_1" data-name="Layer 1" xmlns="http://www.w3.org/2000/svg" xmlns:xlink="http://www.w3.org/1999/xlink" viewBox="0 0 260.37 123.92"><defs><style>.cls-1,.cls-11{fill:none;}.cls-2{clip-path:url(#clip-path);}.cls-3{fill:url(#linear-gradient);}.cls-4{clip-path:url(#clip-path-2);}.cls-5{fill:url(#linear-gradient-2);}.cls-6{clip-path:url(#clip-path-3);}.cls-7{fill:url(#linear-gradient-3);}.cls-8{clip-path:url(#clip-path-4);}.cls-9{fill:url(#linear-gradient-4);}.cls-10{clip-path:url(#clip-path-5);}.cls-11{stroke:#25408e;stroke-miterlimit:10;stroke-width:0.49px;}.cls-12{fill:#fff;}.cls-13{clip-path:url(#clip-path-6);}.cls-14{fill:url(#linear-gradient-5);}.cls-15{clip-path:url(#clip-path-7);}.cls-16{fill:url(#linear-gradient-6);}.cls-17{clip-path:url(#clip-path-9);}.cls-18{fill:url(#linear-gradient-7);}.cls-19{fill:#274976;}</style><clipPath id="clip-path" transform="translate(-74.58 -60.69)"><polygon class="cls-1" points="210.4 165.61 210.4 67.5 220.56 67.5 220.56 155.44 233.53 155.44 233.53 165.61 210.4 165.61"/></clipPath><linearGradient id="linear-gradient" y1="238.93" x2="1" y2="238.93" gradientTransform="matrix(23.13, 0, 0, -23.13, 135.82, 5581.89)" gradientUnits="userSpaceOnUse"><stop offset="0" stop-color="#cef6e4"/><stop offset="0.47" stop-color="#bcf2e4"/><stop offset="1" stop-color="#9cebe4"/></linearGradient><clipPath id="clip-path-2" transform="translate(-74.58 -60.69)"><path class="cls-1" d="M147.25,151.5V82c0-2.65,1.47-4.72,4.27-4.72,2.65,0,4.27,2.07,4.27,4.72V151.5c0,2.8-1.62,4.71-4.27,4.71-2.8,0-4.27-1.91-4.27-4.71M136.93,83.29v66.88c0,10,6.63,16.8,14.59,16.8s14.58-6.78,14.58-16.8V83.29c0-9.87-6.63-16.79-14.58-16.79s-14.59,6.92-14.59,16.79"/></clipPath><linearGradient id="linear-gradient-2" x1="0" y1="238.93" x2="1" y2="238.93" gradientTransform="matrix(29.17, 0, 0, -29.17, 62.36, 7025.05)" xlink:href="#linear-gradient"/><clipPath id="clip-path-3" transform="translate(-74.58 -60.69)"><polygon class="cls-1" points="236.81 67.68 236.81 165.79 260.53 165.79 260.53 155.62 246.97 155.62 246.97 120.42 256.55 120.42 256.55 110.25 246.97 110.25 246.97 77.84 260.53 77.84 260.53 67.68 236.81 67.68"/></clipPath><linearGradient id="linear-gradient-3" x1="0" y1="238.93" x2="1" y2="238.93" gradientTransform="matrix(23.72, 0, 0, -23.72, 162.23, 5722.8)" xlink:href="#linear-gradient"/><clipPath id="clip-path-4" transform="translate(-74.58 -60.69)"><path class="cls-1" d="M276.58,78.14h4.28c1.91,0,3.09,1.32,3.09,4.71V107.9c0,3.53-1.33,5.15-3.54,5.15h-3.83ZM266.27,67.68v98.11h10.31V123.07h4c2.36,0,3.83,2.06,3.83,5V154c0,6.19,1.62,12.08,5,12.08H296v-2.8c-1.18-2.5-1.62-5.59-1.62-10V129.55c0-5.3-2.21-8.84-6-11.2,3.83-2.35,5.74-6,5.74-11.19v-24c0-12.53-7.21-15.47-13-15.47Z"/></clipPath><linearGradient id="linear-gradient-4" x1="0" y1="238.93" x2="1" y2="238.93" gradientTransform="matrix(29.76, 0, 0, -29.76, 191.7, 7166.08)" xlink:href="#linear-gradient"/><clipPath id="clip-path-5" transform="translate(-74.58 -60.69)"><rect class="cls-1" width="396.85" height="238.93"/></clipPath><clipPath id="clip-path-6" transform="translate(-74.58 -60.69)"><path class="cls-1" d="M244.49,116.44c0-.48,2.11-5.26,7.08-5.26,4.7,0,6.92,4.78,7.85,8.63a36.1,36.1,0,0,1-6.6.52c-6.7,0-8.33-3.56-8.33-3.89m-4.86,2.89c0,7.41,3.67,11,11.64,11,3,0,6.85-.93,8.52-2.08,0,.6,0,1.12,0,1.41,0,2.23-7.12,10.79-20.42,10.79a27.59,27.59,0,0,1-4.34-.34l.78,2.82c3.34,2.93,6.23,6.26,11.19,6.26,11.16,0,18.42-12.49,18.42-25.64,0-12.08-4.85-20.76-12.82-20.76-8.71,0-13,9.57-13,16.57m-13.3-37.58c-1.37,2.49-2.71,5-3.45,6.38a6.69,6.69,0,0,0-.92,3c0,1.26,1.33,22.57,1.33,25.46,0,.7-2.37,3.52-8,3.52h-107c-5,0-10.82-2.07-15.3-9.26l-4.3,7.93c3.37,3.93,6.3,9.56,6.3,10.15,0,.89-3.82,11.56-15.79,11.56a26.85,26.85,0,0,1-4.55-.37l.77,2.82c2.34,1.93,5.56,6.26,11.19,6.26,6.64,0,12.86-7.26,13.9-19.45a9.78,9.78,0,0,0,5.19,1.29H212.54c9.27,0,14.27-7.33,15.79-13,.78-2.38,1.15-6.79,1.15-13s-.63-16.12-.63-20.53c0-1.19,0-2.26.11-3.6Zm53,34.69c0-.48,2.11-5.26,7.08-5.26,4.71,0,6.93,4.78,7.86,8.63a56.51,56.51,0,0,1-6.6.3c-6.71,0-8.34-3.11-8.34-3.67m32.06-27.57c-5,2.52-5.75,4.26-8.12,11.34,13.93,7.63,19.57,14.64,19.57,16.08,0,.37-2.78,3.78-17.38,3.78h-5.3c-.86-10.23-5.49-17.31-12.68-17.31-8.7,0-13,9.57-13,16.57,0,7.41,4.48,11.67,13,11.67h6.79c-1.6,3.23-8.64,9.42-20,9.42a27.47,27.47,0,0,1-4.33-.34l.78,2.82c3.33,2.93,6.22,6.26,11.19,6.26,9,0,15.71-8.11,17.67-18.16h3.56c14.57,0,20.61-3.74,23.24-9.41a18.77,18.77,0,0,0,1.85-8c0-2.93-1.33-6.6-7.82-11.38-3.78-2.78-5.74-4.07-7.74-5.44l.07-.38a163,163,0,0,1,19.16-8.56l3.07-9.19c-6.48,2.64-16.3,6.6-23.56,10.27"/></clipPath><linearGradient id="linear-gradient-5" y1="238.93" x2="1" y2="238.93" gradientTransform="matrix(260.37, 0, 0, -260.37, 0, 62262.74)" gradientUnits="userSpaceOnUse"><stop offset="0" stop-color="#25408e"/><stop offset="0.2" stop-color="#25408e"/><stop offset="0.47" stop-color="#bcf2e4"/><stop offset="0.8" stop-color="#25408e"/><stop offset="1" stop-color="#25408e"/></linearGradient><clipPath id="clip-path-7" transform="translate(-74.58 -60.69)"><path class="cls-1" d="M111.75,151.5V82c0-2.65,1.47-4.72,4.27-4.72s4.27,2.07,4.27,4.72v65.41l-4.57,5.15,3,2.8a3.42,3.42,0,0,1-2.65.88c-2.8,0-4.27-1.91-4.27-4.71M101.43,83.29v66.88c0,10,6.63,16.8,14.59,16.8a13.66,13.66,0,0,0,8-2.36,6.5,6.5,0,0,0,5.31,2.36,8.52,8.52,0,0,0,4.71-1.18v-6.63c-2.36,0-4.12-.59-4.86-1.47a18.52,18.52,0,0,0,1.47-7.52V83.29C130.6,73.42,124,66.5,116,66.5s-14.59,6.92-14.59,16.79"/></clipPath><linearGradient id="linear-gradient-6" x1="0" y1="238.93" x2="1" y2="238.93" gradientTransform="matrix(32.56, 0, 0, -32.56, 26.86, 7834.62)" xlink:href="#linear-gradient"/><clipPath id="clip-path-9" transform="translate(-74.58 -60.69)"><path class="cls-1" d="M182.75,151.5V82c0-2.65,1.47-4.72,4.27-4.72,2.65,0,4.27,2.07,4.27,4.72V151.5c0,2.8-1.62,4.71-4.27,4.71-2.8,0-4.27-1.91-4.27-4.71M172.44,83.29v66.88c0,10,6.63,16.8,14.58,16.8s14.58-6.78,14.58-16.8V83.29C201.6,73.42,195,66.5,187,66.5s-14.58,6.92-14.58,16.79"/></clipPath><linearGradient id="linear-gradient-7" x1="0" y1="238.93" x2="1" y2="238.93" gradientTransform="matrix(29.17, 0, 0, -29.17, 97.86, 7025.05)" xlink:href="#linear-gradient"/></defs><title>Qooler_Outlined_Logo_200608OL_RGB</title><g class="cls-2"><rect class="cls-3" x="135.82" y="6.81" width="23.13" height="98.11"/></g><g class="cls-4"><rect class="cls-5" x="62.36" y="5.81" width="29.17" height="100.47"/></g><g class="cls-6"><rect class="cls-7" x="162.23" y="6.99" width="23.72" height="98.11"/></g><g class="cls-8"><rect class="cls-9" x="191.7" y="6.99" width="29.76" height="98.4"/></g><g class="cls-10"><path class="cls-11" d="M134.4,161.4a6.48,6.48,0,0,1-5.3-2.35,13.66,13.66,0,0,1-7.95,2.35c-8,0-14.59-6.77-14.59-16.79V77.73c0-9.87,6.63-16.79,14.59-16.79s14.58,6.92,14.58,16.79v66.88a18.43,18.43,0,0,1-1.47,7.51c.73.89,2.5,1.48,4.86,1.48v6.63A8.62,8.62,0,0,1,134.4,161.4Zm-9-85c0-2.65-1.62-4.71-4.27-4.71-2.8,0-4.28,2.06-4.28,4.71v69.54c0,2.8,1.48,4.71,4.28,4.71a3.46,3.46,0,0,0,2.65-.88l-3-2.8,4.57-5.16Z" transform="translate(-74.58 -60.69)"/><path class="cls-11" d="M156.65,161.4c-8,0-14.59-6.77-14.59-16.79V77.73c0-9.87,6.63-16.79,14.59-16.79s14.58,6.92,14.58,16.79v66.88C171.23,154.63,164.6,161.4,156.65,161.4Zm4.27-85c0-2.65-1.62-4.71-4.27-4.71-2.8,0-4.28,2.06-4.28,4.71v69.54c0,2.8,1.48,4.71,4.28,4.71,2.65,0,4.27-1.91,4.27-4.71Z" transform="translate(-74.58 -60.69)"/><polygon class="cls-11" points="139.22 99.53 139.22 1.42 149.39 1.42 149.39 89.37 162.35 89.37 162.35 99.53 139.22 99.53"/><polygon class="cls-11" points="167.36 99.53 167.36 1.42 191.08 1.42 191.08 11.59 177.53 11.59 177.53 44 187.1 44 187.1 54.16 177.53 54.16 177.53 89.37 191.08 89.37 191.08 99.53 167.36 99.53"/><path class="cls-11" d="M294.53,160.52c-3.39,0-5-5.89-5-12.08V122.51c0-2.94-1.48-5-3.83-5h-4v42.73H271.4V62.12h14.88c5.74,0,13,2.94,13,15.46v24c0,5.15-1.91,8.83-5.74,11.19,3.83,2.36,6,5.89,6,11.2V147.7c0,4.42.45,7.52,1.63,10v2.8Zm-5.45-83.23c0-3.39-1.18-4.72-3.1-4.72h-4.27v34.92h3.83c2.21,0,3.54-1.62,3.54-5.16Z" transform="translate(-74.58 -60.69)"/><polygon class="cls-12" points="91.67 56.4 86.42 61.64 81.18 56.4 91.67 56.4"/><polygon class="cls-12" points="91.67 51.42 86.42 56.67 81.18 51.42 91.67 51.42"/><polygon class="cls-12" points="91.67 46.45 86.42 51.69 81.18 46.45 91.67 46.45"/><polygon class="cls-12" points="91.67 36.48 86.42 41.73 81.18 36.48 91.67 36.48"/><polygon class="cls-12" points="91.67 41.47 86.42 46.72 81.18 41.47 91.67 41.47"/><polygon class="cls-12" points="91.67 26.54 86.42 31.78 81.18 26.54 91.67 26.54"/><polygon class="cls-12" points="91.67 21.57 86.42 26.82 81.18 21.57 91.67 21.57"/><polygon class="cls-12" points="91.67 16.58 86.42 21.83 81.18 16.58 91.67 16.58"/><polygon class="cls-12" points="91.67 31.52 86.42 36.77 81.18 31.52 91.67 31.52"/><polygon class="cls-12" points="144.43 46.56 139.19 51.8 133.95 46.56 144.43 46.56"/><polygon class="cls-12" points="144.43 41.58 139.19 46.83 133.95 41.58 144.43 41.58"/><polygon class="cls-12" points="144.43 36.61 139.19 41.85 133.95 36.61 144.43 36.61"/><polygon class="cls-12" points="144.43 26.64 139.19 31.89 133.95 26.64 144.43 26.64"/><polygon class="cls-12" points="144.43 31.63 139.19 36.88 133.95 31.63 144.43 31.63"/><polygon class="cls-12" points="144.43 16.69 139.19 21.94 133.95 16.69 144.43 16.69"/><polygon class="cls-12" points="144.43 11.73 139.19 16.97 133.95 11.73 144.43 11.73"/><polygon class="cls-12" points="144.43 6.74 139.19 11.99 133.95 6.74 144.43 6.74"/><polygon class="cls-12" points="144.43 21.68 139.19 26.92 133.95 21.68 144.43 21.68"/><polygon class="cls-12" points="162.11 36.7 167.35 31.46 172.6 36.7 162.11 36.7"/><polygon class="cls-12" points="162.11 41.68 167.35 36.43 172.6 41.68 162.11 41.68"/><polygon class="cls-12" points="162.11 46.65 167.35 41.41 172.6 46.65 162.11 46.65"/><polygon class="cls-12" points="162.11 56.61 167.35 51.37 172.6 56.61 162.11 56.61"/><polygon class="cls-12" points="162.11 51.63 167.35 46.38 172.6 51.63 162.11 51.63"/><polygon class="cls-12" points="162.11 66.56 167.35 61.32 172.6 66.56 162.11 66.56"/><polygon class="cls-12" points="162.11 71.53 167.35 66.28 172.6 71.53 162.11 71.53"/><polygon class="cls-12" points="162.11 76.52 167.35 71.27 172.6 76.52 162.11 76.52"/><polygon class="cls-12" points="162.11 61.58 167.35 56.33 172.6 61.58 162.11 61.58"/><polygon class="cls-12" points="202.12 46.41 196.88 51.66 191.63 46.41 202.12 46.41"/><polygon class="cls-12" points="202.12 41.44 196.88 46.68 191.63 41.44 202.12 41.44"/><polygon class="cls-12" points="202.12 36.46 196.88 41.71 191.63 36.46 202.12 36.46"/><polygon class="cls-12" points="202.12 26.5 196.88 31.74 191.63 26.5 202.12 26.5"/><polygon class="cls-12" points="202.12 31.49 196.88 36.73 191.63 31.49 202.12 31.49"/><polygon class="cls-12" points="202.12 16.55 196.88 21.79 191.63 16.55 202.12 16.55"/><polygon class="cls-12" points="202.12 11.59 196.88 16.83 191.63 11.59 202.12 11.59"/><polygon class="cls-12" points="202.12 6.6 196.88 11.84 191.63 6.6 202.12 6.6"/><polygon class="cls-12" points="202.12 21.54 196.88 26.78 191.63 21.54 202.12 21.54"/></g><g class="cls-13"><rect class="cls-14" y="17.91" width="260.37" height="70.56"/></g><g class="cls-15"><rect class="cls-16" x="26.86" y="5.81" width="32.55" height="100.47"/></g><g class="cls-10"><polygon class="cls-12" points="26.74 49.05 31.99 43.8 37.23 49.05 26.74 49.05"/><polygon class="cls-12" points="26.74 54.02 31.99 48.78 37.23 54.02 26.74 54.02"/><polygon class="cls-12" points="26.74 58.99 31.99 53.75 37.23 58.99 26.74 58.99"/><polygon class="cls-12" points="26.74 68.96 31.99 63.71 37.23 68.96 26.74 68.96"/><polygon class="cls-12" points="26.74 63.97 31.99 58.73 37.23 63.97 26.74 63.97"/><polygon class="cls-12" points="26.74 78.91 31.99 73.66 37.23 78.91 26.74 78.91"/><polygon class="cls-12" points="26.74 83.87 31.99 78.63 37.23 83.87 26.74 83.87"/><polygon class="cls-12" points="26.74 88.86 31.99 83.61 37.23 88.86 26.74 88.86"/><polygon class="cls-12" points="26.74 73.92 31.99 68.68 37.23 73.92 26.74 73.92"/></g><g class="cls-17"><rect class="cls-18" x="97.86" y="5.81" width="29.17" height="100.47"/></g><g class="cls-10"><polygon class="cls-12" points="97.76 51.36 103 46.12 108.24 51.36 97.76 51.36"/><polygon class="cls-12" points="97.76 56.33 103 51.09 108.24 56.33 97.76 56.33"/><polygon class="cls-12" points="97.76 61.31 103 56.06 108.24 61.31 97.76 61.31"/><polygon class="cls-12" points="97.76 71.27 103 66.03 108.24 71.27 97.76 71.27"/><polygon class="cls-12" points="97.76 66.28 103 61.04 108.24 66.28 97.76 66.28"/><polygon class="cls-12" points="97.76 81.22 103 75.98 108.24 81.22 97.76 81.22"/><polygon class="cls-12" points="97.76 86.19 103 80.94 108.24 86.19 97.76 86.19"/><polygon class="cls-12" points="97.76 91.17 103 85.93 108.24 91.17 97.76 91.17"/><polygon class="cls-12" points="97.76 76.23 103 70.99 108.24 76.23 97.76 76.23"/><path class="cls-11" d="M192.15,161.4c-8,0-14.59-6.77-14.59-16.79V77.73c0-9.87,6.63-16.79,14.59-16.79s14.58,6.92,14.58,16.79v66.88C206.73,154.63,200.1,161.4,192.15,161.4Zm4.27-85c0-2.65-1.62-4.71-4.27-4.71-2.8,0-4.27,2.06-4.27,4.71v69.54c0,2.8,1.47,4.71,4.27,4.71,2.65,0,4.27-1.91,4.27-4.71Z" transform="translate(-74.58 -60.69)"/><polygon class="cls-19" points="28.22 123.67 27.78 123.67 26.11 118.57 26.68 118.57 28 122.69 29.32 118.57 29.9 118.57 28.22 123.67"/><path class="cls-19" d="M107.18,184.4a1.75,1.75,0,0,1-1.28-.5c-.48-.48-.51-.92-.51-2.09s0-1.61.51-2.09a1.79,1.79,0,0,1,1.28-.5,1.72,1.72,0,0,1,1.76,1.52h-.56a1.19,1.19,0,0,0-1.2-1,1.25,1.25,0,0,0-.89.35c-.32.33-.35.71-.35,1.75s0,1.42.35,1.75a1.25,1.25,0,0,0,.89.35,1.21,1.21,0,0,0,1.22-1h.54a1.72,1.72,0,0,1-1.76,1.52" transform="translate(-74.58 -60.69)"/><path class="cls-19" d="M112.24,184.4a1.69,1.69,0,0,1-1.78-1.72v-3.42H111v3.37a1.17,1.17,0,0,0,1.23,1.28,1.19,1.19,0,0,0,1.24-1.28v-3.37H114v3.42a1.69,1.69,0,0,1-1.78,1.72" transform="translate(-74.58 -60.69)"/><path class="cls-19" d="M118.78,184.36l-.41-1.15h-2.22l-.41,1.15h-.58l1.87-5.1h.46l1.87,5.1ZM117.27,180l-1,2.69h1.9Z" transform="translate(-74.58 -60.69)"/><path class="cls-19" d="M123.5,184.36l-1.16-2.26h-1.22v2.26h-.55v-5.1h2a1.38,1.38,0,0,1,1.51,1.42,1.34,1.34,0,0,1-1.11,1.37l1.21,2.31Zm-1-4.61h-1.36v1.87h1.36a.94.94,0,1,0,0-1.87" transform="translate(-74.58 -60.69)"/><polygon class="cls-19" points="52.47 119.06 52.47 123.67 51.92 123.67 51.92 119.06 50.45 119.06 50.45 118.57 53.94 118.57 53.94 119.06 52.47 119.06"/><path class="cls-19" d="M131.17,184.4a2.2,2.2,0,0,1-1.74-.67l.37-.37a1.71,1.71,0,0,0,1.39.55c.75,0,1.2-.34,1.2-.94a.78.78,0,0,0-.25-.64,1.11,1.11,0,0,0-.66-.25l-.6-.08a1.85,1.85,0,0,1-.93-.39,1.23,1.23,0,0,1-.39-1,1.44,1.44,0,0,1,1.63-1.43,2.08,2.08,0,0,1,1.52.56l-.35.35a1.6,1.6,0,0,0-1.19-.44c-.69,0-1.08.37-1.08.95a.73.73,0,0,0,.23.59,1.42,1.42,0,0,0,.66.27l.6.09a1.57,1.57,0,0,1,.92.36,1.3,1.3,0,0,1,.43,1c0,.89-.69,1.44-1.76,1.44" transform="translate(-74.58 -60.69)"/><path class="cls-19" d="M139.65,183.72l.56.56-.33.33-.56-.56a1.76,1.76,0,0,1-1.1.35,1.71,1.71,0,0,1-1.27-.5c-.48-.48-.51-.92-.51-2.09s0-1.61.51-2.09a1.86,1.86,0,0,1,2.54,0c.48.48.51.92.51,2.09s0,1.48-.35,1.91m-.55-3.66a1.28,1.28,0,0,0-1.76,0c-.32.33-.36.71-.36,1.75s0,1.42.36,1.75a1.22,1.22,0,0,0,.88.35,1.08,1.08,0,0,0,.72-.24l-.64-.64.33-.33.61.62a2.76,2.76,0,0,0,.22-1.51c0-1,0-1.42-.36-1.75" transform="translate(-74.58 -60.69)"/><path class="cls-19" d="M144.56,184.36l-.4-1.15h-2.23l-.41,1.15h-.58l1.88-5.1h.46l1.86,5.1ZM143.05,180l-1,2.69H144Z" transform="translate(-74.58 -60.69)"/><polygon class="cls-19" points="72.84 119.06 72.84 123.67 72.3 123.67 72.3 119.06 70.83 119.06 70.83 118.57 74.32 118.57 74.32 119.06 72.84 119.06"/><path class="cls-19" d="M152.78,184.36l-.41-1.15h-2.23l-.4,1.15h-.58l1.87-5.1h.46l1.87,5.1ZM151.27,180l-1,2.69h1.9Z" transform="translate(-74.58 -60.69)"/><path class="cls-19" d="M157.5,184.36l-1.16-2.26h-1.23v2.26h-.54v-5.1h2a1.38,1.38,0,0,1,1.51,1.42,1.33,1.33,0,0,1-1.11,1.37l1.21,2.31Zm-1-4.61h-1.36v1.87h1.36a.94.94,0,1,0,0-1.87" transform="translate(-74.58 -60.69)"/><rect class="cls-19" x="87.25" y="118.57" width="0.54" height="5.1"/><polygon class="cls-19" points="92.91 123.67 90.2 119.58 90.2 123.67 89.66 123.67 89.66 118.57 90.18 118.57 92.88 122.64 92.88 118.57 93.42 118.57 93.42 123.67 92.91 123.67"/><polygon class="cls-19" points="96.78 119.06 96.78 123.67 96.24 123.67 96.24 119.06 94.77 119.06 94.77 118.57 98.26 118.57 98.26 119.06 96.78 119.06"/><polygon class="cls-19" points="99.6 123.67 99.6 118.57 102.76 118.57 102.76 119.06 100.14 119.06 100.14 120.86 102.38 120.86 102.38 121.34 100.14 121.34 100.14 123.18 102.76 123.18 102.76 123.67 99.6 123.67"/><path class="cls-19" d="M181.79,184.36l-1.16-2.26H179.4v2.26h-.54v-5.1h1.95a1.38,1.38,0,0,1,1.51,1.42,1.33,1.33,0,0,1-1.11,1.37l1.21,2.31Zm-1-4.61H179.4v1.87h1.36a.94.94,0,1,0,0-1.87" transform="translate(-74.58 -60.69)"/><polygon class="cls-19" points="112.62 123.67 109.91 119.58 109.91 123.67 109.37 123.67 109.37 118.57 109.88 118.57 112.59 122.64 112.59 118.57 113.13 118.57 113.13 123.67 112.62 123.67"/><path class="cls-19" d="M192.54,184.36l-.41-1.15h-2.22l-.41,1.15h-.58l1.87-5.1h.46l1.87,5.1ZM191,180l-1,2.69H192Z" transform="translate(-74.58 -60.69)"/><polygon class="cls-19" points="120.82 119.06 120.82 123.67 120.28 123.67 120.28 119.06 118.8 119.06 118.8 118.57 122.3 118.57 122.3 119.06 120.82 119.06"/><rect class="cls-19" x="123.64" y="118.57" width="0.54" height="5.1"/><path class="cls-19" d="M203.48,183.9a1.86,1.86,0,0,1-2.54,0c-.48-.48-.51-.92-.51-2.09s0-1.61.51-2.09a1.86,1.86,0,0,1,2.54,0c.48.48.51.92.51,2.09s0,1.61-.51,2.09m-.39-3.84a1.21,1.21,0,0,0-.88-.35,1.24,1.24,0,0,0-.88.35c-.32.33-.36.71-.36,1.75s0,1.42.36,1.75a1.24,1.24,0,0,0,.88.35,1.21,1.21,0,0,0,.88-.35c.32-.33.36-.7.36-1.75s0-1.42-.36-1.75" transform="translate(-74.58 -60.69)"/><polygon class="cls-19" points="134.34 123.67 131.63 119.58 131.63 123.67 131.09 123.67 131.09 118.57 131.6 118.57 134.31 122.64 134.31 118.57 134.85 118.57 134.85 123.67 134.34 123.67"/><path class="cls-19" d="M214.26,184.36l-.41-1.15h-2.22l-.41,1.15h-.58l1.87-5.1H213l1.87,5.1ZM212.75,180l-1,2.69h1.9Z" transform="translate(-74.58 -60.69)"/><polygon class="cls-19" points="141.48 123.67 141.48 118.57 142.02 118.57 142.02 123.18 144.63 123.18 144.63 123.67 141.48 123.67"/><path class="cls-19" d="M225.8,183.82a1.7,1.7,0,0,1-1.34.54h-1.74v-5.1h1.74a1.7,1.7,0,0,1,1.34.54,4.71,4.71,0,0,1,0,4m-.43-3.7a1.29,1.29,0,0,0-1-.37h-1.11v4.12h1.11a1.25,1.25,0,0,0,1-.37,4.37,4.37,0,0,0,0-3.38" transform="translate(-74.58 -60.69)"/><polygon class="cls-19" points="153.34 123.67 153.34 118.57 156.51 118.57 156.51 119.06 153.89 119.06 153.89 120.86 156.12 120.86 156.12 121.34 153.89 121.34 153.89 123.18 156.51 123.18 156.51 123.67 153.34 123.67"/><path class="cls-19" d="M233.91,184.4a2.19,2.19,0,0,1-1.73-.67l.36-.37a1.72,1.72,0,0,0,1.39.55c.75,0,1.21-.34,1.21-.94a.81.81,0,0,0-.25-.64,1.14,1.14,0,0,0-.67-.25l-.59-.08a1.85,1.85,0,0,1-.93-.39,1.21,1.21,0,0,1-.4-1,1.45,1.45,0,0,1,1.64-1.43,2,2,0,0,1,1.51.56l-.35.35a1.6,1.6,0,0,0-1.19-.44c-.68,0-1.08.37-1.08.95a.76.76,0,0,0,.23.59,1.41,1.41,0,0,0,.67.27l.59.09a1.61,1.61,0,0,1,.93.36,1.3,1.3,0,0,1,.43,1c0,.89-.7,1.44-1.77,1.44" transform="translate(-74.58 -60.69)"/><rect class="cls-19" x="162.63" y="118.57" width="0.54" height="5.1"/><path class="cls-19" d="M242.56,183.81a1.78,1.78,0,0,1-1.36.59,1.71,1.71,0,0,1-1.27-.5c-.48-.48-.51-.92-.51-2.09s0-1.61.51-2.09a1.82,1.82,0,0,1,3,1h-.54a1.27,1.27,0,0,0-2.12-.68c-.32.33-.36.71-.36,1.75s0,1.42.36,1.75a1.21,1.21,0,0,0,.88.35,1.27,1.27,0,0,0,1-.43,1.4,1.4,0,0,0,.28-.92v-.4H241.2v-.46H243v.8a1.72,1.72,0,0,1-.44,1.31" transform="translate(-74.58 -60.69)"/><polygon class="cls-19" points="173.33 123.67 170.62 119.58 170.62 123.67 170.08 123.67 170.08 118.57 170.59 118.57 173.3 122.64 173.3 118.57 173.84 118.57 173.84 123.67 173.33 123.67"/><path class="cls-19" d="M254,184.4a1.71,1.71,0,0,1-1.27-.5c-.48-.48-.51-.92-.51-2.09s0-1.61.51-2.09a1.81,1.81,0,0,1,3,1h-.56a1.2,1.2,0,0,0-1.21-1,1.24,1.24,0,0,0-.88.35c-.32.33-.36.71-.36,1.75s0,1.42.36,1.75a1.24,1.24,0,0,0,.88.35,1.22,1.22,0,0,0,1.23-1h.54A1.73,1.73,0,0,1,254,184.4" transform="translate(-74.58 -60.69)"/><path class="cls-19" d="M260.19,183.9a1.72,1.72,0,0,1-1.27.5,1.75,1.75,0,0,1-1.28-.5c-.48-.48-.5-.92-.5-2.09s0-1.61.5-2.09a1.79,1.79,0,0,1,1.28-.5,1.76,1.76,0,0,1,1.27.5c.47.48.51.92.51,2.09s0,1.61-.51,2.09m-.39-3.84a1.24,1.24,0,0,0-.88-.35,1.21,1.21,0,0,0-.88.35c-.32.33-.36.71-.36,1.75s0,1.42.36,1.75a1.21,1.21,0,0,0,.88.35,1.24,1.24,0,0,0,.88-.35c.32-.33.36-.7.36-1.75s0-1.42-.36-1.75" transform="translate(-74.58 -60.69)"/><polygon class="cls-19" points="191.62 123.67 191.62 119.8 190.22 122.87 189.75 122.87 188.34 119.8 188.34 123.67 187.79 123.67 187.79 118.57 188.34 118.57 190 122.19 191.62 118.57 192.16 118.57 192.16 123.67 191.62 123.67"/><path class="cls-19" d="M270.49,182.26h-1.35v2.1h-.54v-5.1h1.89a1.5,1.5,0,1,1,0,3m0-2.51h-1.31v2h1.31a1,1,0,1,0,0-2" transform="translate(-74.58 -60.69)"/><polygon class="cls-19" points="198.92 123.67 198.92 118.57 202.08 118.57 202.08 119.06 199.46 119.06 199.46 120.86 201.69 120.86 201.69 121.34 199.46 121.34 199.46 123.18 202.08 123.18 202.08 123.67 198.92 123.67"/><polygon class="cls-19" points="205.1 119.06 205.1 123.67 204.55 123.67 204.55 119.06 203.08 119.06 203.08 118.57 206.57 118.57 206.57 119.06 205.1 119.06"/><rect class="cls-19" x="207.91" y="118.57" width="0.54" height="5.1"/><polygon class="cls-19" points="211.82 119.06 211.82 123.67 211.28 123.67 211.28 119.06 209.8 119.06 209.8 118.57 213.29 118.57 213.29 119.06 211.82 119.06"/><rect class="cls-19" x="214.63" y="118.57" width="0.54" height="5.1"/><path class="cls-19" d="M294.48,183.9a1.86,1.86,0,0,1-2.54,0c-.48-.48-.51-.92-.51-2.09s0-1.61.51-2.09a1.86,1.86,0,0,1,2.54,0c.48.48.51.92.51,2.09s0,1.61-.51,2.09m-.39-3.84a1.28,1.28,0,0,0-1.76,0c-.32.33-.36.71-.36,1.75s0,1.42.36,1.75a1.28,1.28,0,0,0,1.76,0c.32-.33.36-.7.36-1.75s0-1.42-.36-1.75" transform="translate(-74.58 -60.69)"/><polygon class="cls-19" points="225.33 123.67 222.63 119.58 222.63 123.67 222.09 123.67 222.09 118.57 222.6 118.57 225.31 122.64 225.31 118.57 225.85 118.57 225.85 123.67 225.33 123.67"/></g></svg>