<?xml version="1.0" encoding="utf-8"?><svg height="170" viewBox="0 0 357 170" width="357" xmlns="http://www.w3.org/2000/svg" xmlns:xlink="http://www.w3.org/1999/xlink"><linearGradient id="a" x1="0%" x2="100%" y1="50%" y2="50%"><stop offset=".2" stop-color="#25408e"/><stop offset=".47" stop-color="#c9e7e2"/><stop offset=".8" stop-color="#25408e"/></linearGradient><g fill="none" fill-rule="evenodd" transform="translate(0 1)"><path d="m186 144v-135h14.053494v121.006014h17.946506v13.993986z" fill="#c9e7e2" fill-rule="nonzero"/><path d="m105.993144 146c-10.9701752 0-19.993144-9.312631-19.993144-23.075545v-91.8626455c0-13.5568827 9.0915324-23.0618095 19.993144-23.0618095 10.901611 0 20.006856 9.5049268 20.006856 23.0618095v91.8626455c0 13.762914-9.091532 23.075545-20.006856 23.075545zm5.869043-116.751269c0-3.653628-2.235173-6.4831293-5.869043-6.4831293-3.633871 0-5.855331 2.8295013-5.855331 6.4831293v95.502538c0 3.845924 2.015769 6.469394 5.855331 6.469394 3.839561 0 5.869043-2.62347 5.869043-6.469394z" fill="#c9e7e2" fill-rule="nonzero"/><path d="m222 144v-134h33v13.8644241h-18.880942v44.2705402h13.327724v13.8780836h-13.327724v48.0952091h18.880942v13.891743z" fill="#c9e7e2" fill-rule="nonzero"/><path d="m294.873571 145c-4.659718 0-6.893073-8.081614-6.893073-16.574855v-35.5645901c0-4.1162719-2.04035-6.8604533-5.280095-6.8604533h-5.514458v58.6019924h-14.185945v-134.602094h20.5c7.927034 0 17.921991 4.0339465 17.921991 21.2125216v32.9301758c0 7.0662669-2.646941 12.1292815-7.927035 15.3536945 5.280094 3.238134 8.271688 8.0953349 8.271688 15.3674154v32.5597117c0 6.06464.606591 10.304401 2.233356 13.720906v3.841854zm-7.51345-114.1991056c0-4.6513873-1.626765-6.462547-4.259919-6.462547h-5.900471v47.8996849h5.280094c3.046739 0 4.86651-2.2227868 4.86651-7.0799878z" fill="#c9e7e2" fill-rule="nonzero"/><path d="m82.50046 137.988938c-2.8168338.132338-5.5317715-1.063638-7.3275069-3.227892-3.2507564 2.197412-7.1113025 3.326209-11.0395584 3.227892-11.0395585 0-20.1333947-9.299075-20.1333947-23.062256v-91.9193685c.0965961-13.50220249 9.2180313-23.0073135 20.2023919-23.0073135s20.1195952 9.50511101 20.1195952 23.0073135v91.9193685c.0563556 3.541905-.6347123 7.056155-2.0285188 10.315518 1.0211591 1.222478 3.449862 2.032885 6.7065317 2.032885v9.093039c-1.9627141 1.156341-4.2209478 1.719485-6.49954 1.620814zm-12.4195032-116.753531c0-3.6399631-2.2355106-6.4695192-5.8923643-6.4695192-3.6568538 0-5.8923643 2.8295561-5.8923643 6.4695192v95.504388c.0137994 3.791056 2.0423183 6.538198 5.9061637 6.538198 1.3380443.127855 2.6675948-.316611 3.6568537-1.222478l-4.0708371-3.832263 6.3063477-7.087626z" stroke="#25408e" stroke-width=".49"/><path d="m113 138c-10.90535 0-20-9.299821-20-23.064105v-91.9267371c0-13.50328492 9.09465-23.0091579 20-23.0091579s20 9.50587298 20 23.0091579v91.9267371c0 13.764284-9.122085 23.064105-20 23.064105zm5.857339-116.7628907c0-3.6402548-2.222222-6.4700378-5.857339-6.4700378s-5.857339 2.829783-5.857339 6.4700378v95.5120447c0 3.79136 2.016461 6.538722 5.857339 6.538722s5.857339-2.637468 5.857339-6.483775z" stroke="#25408e" stroke-width=".49"/><path d="m191 137v-135h14.037997v121.088574h17.962003v13.911426z" stroke="#25408e" stroke-width=".49"/><path d="m229 137v-135h33v13.9939863h-18.85118v44.5963715h13.314081v13.9802262h-13.314081v48.44919h18.85118v13.980226z" stroke="#25408e" stroke-width=".49"/><path d="m301.934812 137c-4.670363 0-6.888441-8.079972-6.888441-16.571487v-35.5710798c0-4.0331267-2.025202-6.8590591-5.276546-6.8590591h-5.510752v58.5900819h-14.259073v-134.588456h20.5c7.921707 0 17.909946 4.11543542 17.909946 21.2219287v32.9234834c0 7.0785489-2.631384 12.1268163-7.90793 15.3642922 5.276546 3.2374759 8.266129 8.0799715 8.266129 15.3642922v32.5256585c0 6.063408.606183 10.316024 2.231855 13.718118v3.841073zm-7.577285-114.1758968c0-4.650442-1.625672-6.4749517-4.257057-6.4749517h-5.896505v47.9036683h5.331653c3.044691 0 4.877016-2.2223351 4.877016-7.0785489z" stroke="#25408e" stroke-width=".49"/><g fill-rule="nonzero"><path d="m126 77-7.006673 7-6.993327-7z" fill="#fff"/><path d="m126 71-7.006673 7-6.993327-7z" fill="#fff"/><path d="m126 64-7.006673 7-6.993327-7z" fill="#fff"/><path d="m126 50-7.006673 7-6.993327-7z" fill="#fff"/><path d="m126 57-7.006673 7-6.993327-7z" fill="#fff"/><path d="m126 36-7.006673 7-6.993327-7z" fill="#fff"/><path d="m126 30-7.006673 7-6.993327-7z" fill="#fff"/><path d="m126 23-7.006673 7-6.993327-7z" fill="#fff"/><path d="m126 43-7.006673 7-6.993327-7z" fill="#fff"/><path d="m198 64-7 7-7-7z" fill="#fff"/><path d="m198 57-7 7-7-7z" fill="#fff"/><path d="m198 50-7 7-7-7z" fill="#fff"/><path d="m198 37-7 7-7-7z" fill="#fff"/><path d="m198 43-7 7-7-7z" fill="#fff"/><path d="m198 23-7 7-7-7z" fill="#fff"/><path d="m198 16-7 7-7-7z" fill="#fff"/><path d="m198 9-7 7-7-7z" fill="#fff"/><path d="m198 30-7 7-7-7z" fill="#fff"/><path d="m223 50 6.993327-7 7.006673 7z" fill="#fff"/><path d="m223 57 6.993327-7 7.006673 7z" fill="#fff"/><path d="m223 64 6.993327-7 7.006673 7z" fill="#fff"/><path d="m223 78 6.993327-7 7.006673 7z" fill="#fff"/><path d="m223 71 6.993327-7 7.006673 7z" fill="#fff"/><path d="m223 91 6.993327-7 7.006673 7z" fill="#fff"/><path d="m223 98 6.993327-7 7.006673 7z" fill="#fff"/><path d="m223 105 6.993327-7 7.006673 7z" fill="#fff"/><path d="m223 84 6.993327-7 7.006673 7z" fill="#fff"/><path d="m277 64-6.993327 7-7.006673-7z" fill="#fff"/><path d="m277 57-6.993327 7-7.006673-7z" fill="#fff"/><path d="m277 50-6.993327 7-7.006673-7z" fill="#fff"/><path d="m277 36-6.993327 7-7.006673-7z" fill="#fff"/><path d="m277 43-6.993327 7-7.006673-7z" fill="#fff"/><path d="m277 23-6.993327 7-7.006673-7z" fill="#fff"/><path d="m277 16-6.993327 7-7.006673-7z" fill="#fff"/><path d="m277 9-6.993327 7-7.006673-7z" fill="#fff"/><path d="m277 30-6.993327 7-7.006673-7z" fill="#fff"/><path d="m232.967969 76.0162843c0-.6593033 2.893075-7.2248654 9.70757-7.2248654 6.44429 0 9.501901 6.5655621 10.763336 11.8537241-2.983607.5156465-6.008304.7547394-9.035718.7142453-9.200253 0-11.435188-4.8898329-11.435188-5.343104m-6.64996 3.9695554c0 10.1779949 5.01832 15.1090343 15.946192 15.1090343 4.113377 0 9.405922-1.2774002 11.681991-2.8569811v1.9367035c0 3.0492779-9.748704 14.8205886-27.998387 14.8205886-1.987924-.005272-3.972593-.161387-5.936974-.467006l1.069478 3.873407c4.565848 4.010762 8.528402 8.598414 15.342896 8.598414 15.288052 0 25.256136-17.155622 25.256136-35.2177853 0-16.5924668-6.663671-28.5148683-17.591543-28.5148683-11.942505 0-17.824634 13.1311243-17.824634 22.7596998m-18.194838-51.6591617c-1.878442 3.4201359-3.70204 6.8677428-4.716673 8.7632398-.751357 1.2500723-1.188908 2.6640224-1.275146 4.1206457 0 1.7306712 1.823597 31.0009913 1.823597 34.9705466 0 .961484-3.249568 4.834891-10.969006 4.834891h-146.7104505c-6.8556285 0-14.8355801-2.8432455-20.9919345-12.7190598l-6.0329531 10.8372982c4.6344049 5.3843104 8.6380919 13.1311244 8.6380919 13.941518 0 1.2224583-5.2239889 15.878221-21.63636361 15.878221-2.07640102.005006-4.14954164-.164998-6.19748819-.508212l1.06947805 3.873406c3.19472289 2.637214 7.62345892 8.598415 15.38403045 8.598415 9.0905634 0 17.6326765-9.971963 19.0586473-26.7155201 2.1565591 1.241702 4.6164326 1.8553785 7.1024311 1.7718776h146.6007601c12.696624 0 19.552253-10.0818465 21.636364-17.8561314 1.069478-3.2690456 1.576795-9.3263948 1.576795-17.8561314s-.86381-22.1416029-.86381-28.1989521c0-1.6345228 0-3.1042198.150824-4.9447749zm72.669662 47.6483998c0-.6593033 2.906787-7.2248654 9.70757-7.2248654 6.458002 0 9.501901 6.5655621 10.777048 11.8537241-3.005873.3140344-6.027512.4516243-9.049429.4120646-9.186543 0-11.435189-4.2854715-11.435189-5.0409233m43.944579-37.868734c-6.855628 3.4613424-7.870261 5.8513169-11.133541 15.5760408 19.113493 10.4801755 26.83293 20.0950155 26.83293 22.086661 0 .5082129-3.811729 5.1920135-23.830164 5.1920135h-7.266967c-1.165456-14.0514018-7.513768-23.7761257-17.372162-23.7761257-11.942505 0-17.824634 13.1311243-17.824634 22.7596998 0 10.1779949 6.142643 16.0293118 17.824634 16.0293118h9.296232c-2.18009 4.4365615-11.832815 12.9388275-27.422514 12.9388275-1.992474-.005262-3.981701-.161375-5.950686-.467006l1.069478 3.873406c4.57956 4.010762 8.542114 8.598415 15.342897 8.598415 12.340131 0 21.540385-11.153215 24.241503-24.9436425h4.881207c19.96359 0 28.24519-5.1370716 31.85125-12.925092 1.65123-3.4280734 2.517826-7.1821386 2.536583-10.9883886 0-4.0244973-1.823597-9.0654205-10.708492-15.6309827-5.2377-3.873407-7.897684-5.6590201-10.639935-7.5819881l.095978-.508213c8.497037-4.4777119 17.271965-8.4049623 26.270769-11.7575757l4.223067-12.6229114c-8.898606 3.6124327-22.36306 9.0654206-32.317433 14.1063438" fill="url(#a)"/><path d="m75.4964713 145.989901c-2.8165699.126784-5.5284635-1.07435-7.3181958-3.241328-3.252725 2.198698-7.1146586 3.331906-11.0463332 3.241328-10.9772936 0-20.1319423-9.31195-20.1319423-23.073857v-91.8559223c0-13.5558905 9.1546487-23.0601217 20.1319423-23.0601217 10.9772937 0 20.1595582 9.5042312 20.1595582 23.0601217v91.8559223c.0707767 3.544552-.611479 7.064042-2.0021479 10.328298 1.0217858 1.20863 3.465787 2.018962 6.7106474 2.018962v9.105933c-1.9657378 1.151825-4.2240237 1.714584-6.5035287 1.620664zm-12.4271249-116.7427251c0-3.6533606-2.2368825-6.4826548-5.8959803-6.4826548-3.6590979 0-5.8959804 2.8292942-5.8959804 6.4826548v95.4955491c0 3.845642 2.0297637 6.46892 5.8959804 6.46892 1.336433.128023 2.6651293-.310856 3.6590978-1.208631l-4.0595274-3.845642 6.2964099-7.08697z" fill="#c9e7e2"/><path d="m37 67 7.006673-7 6.993327 7z" fill="#fff"/><path d="m37 74 7.006673-7 6.993327 7z" fill="#fff"/><path d="m37 81 7.006673-7 6.993327 7z" fill="#fff"/><path d="m37 94 7.006673-7 6.993327 7z" fill="#fff"/><path d="m37 88 7.006673-7 6.993327 7z" fill="#fff"/><path d="m37 108 7.006673-7 6.993327 7z" fill="#fff"/><path d="m37 115 7.006673-7 6.993327 7z" fill="#fff"/><path d="m37 122 7.006673-7 6.993327 7z" fill="#fff"/><path d="m37 101 7.006673-7 6.993327 7z" fill="#fff"/><path d="m154.013727 146c-10.981469 0-20.013727-9.312631-20.013727-23.075545v-91.8626455c0-13.5568827 9.100892-23.0618095 20.013727-23.0618095 10.912834 0 19.986273 9.5049268 19.986273 23.0618095v91.8626455c0 13.762914-9.059712 23.075545-19.986273 23.075545zm5.875086-116.751269c0-3.653628-2.223748-6.4831293-5.875086-6.4831293-3.651339 0-5.861359 2.8295013-5.861359 6.4831293v95.502538c0 3.845924 2.031572 6.469394 5.861359 6.469394s5.875086-2.62347 5.875086-6.469394z" fill="#c9e7e2"/><path d="m134 70 6.993327-7 7.006673 7z" fill="#fff"/><path d="m134 77 6.993327-7 7.006673 7z" fill="#fff"/><path d="m134 84 6.993327-7 7.006673 7z" fill="#fff"/><path d="m134 98 6.993327-7 7.006673 7z" fill="#fff"/><path d="m134 91 6.993327-7 7.006673 7z" fill="#fff"/><path d="m134 111 6.993327-7 7.006673 7z" fill="#fff"/><path d="m134 118 6.993327-7 7.006673 7z" fill="#fff"/><path d="m134 125 6.993327-7 7.006673 7z" fill="#fff"/><path d="m134 104 6.993327-7 7.006673 7z" fill="#fff"/></g><path d="m160.993144 138c-10.901612 0-19.993144-9.299821-19.993144-23.064105v-91.9267371c.013713-13.50328492 9.091532-23.0091579 19.993144-23.0091579 10.901611 0 20.006856 9.50587298 20.006856 23.0091579v91.9267371c0 13.764284-9.091532 23.064105-20.006856 23.064105zm5.85533-116.7628907c0-3.6402548-2.22146-6.4700378-5.85533-6.4700378-3.633871 0-5.855331 2.829783-5.855331 6.4700378v95.5120447c0 3.846307 2.015769 6.483775 5.855331 6.483775 3.839561 0 5.85533-2.637468 5.85533-6.483775z" stroke="#25408e" stroke-width=".49"/><path d="m37.9936306 166.213953 1.8726114-7.213953h1.133758l-2.5477707 9h-.9044586l-2.5477707-9h1.1210191z" fill="#274976" fill-rule="nonzero"/><path d="m48.9992993 165.097313c.010127.78948-.2848796 1.555236-.8294843 2.153113-.5747523.51966-1.3519241.789482-2.1452181.744787-.8623179.023894-1.6833257-.349655-2.202424-1.002078-.5836064-.791205-.8705917-1.744669-.8151829-2.708318v-1.584366c-.0574578-.967945.2406802-1.924885.8437858-2.708318.5606085-.646404 1.4051971-1.011274 2.2882327-.988536.7738115-.038759 1.528289.237143 2.0737109.758329.5244893.611445.8031759 1.379094.7865799 2.166655h-1.1727192c.0166736-.540168-.1486168-1.071348-.471948-1.516658-.3028692-.330397-.7556588-.50189-1.2156236-.460415-.569236-.012987-1.1070065.246704-1.4301454.690622-.3731556.625984-.5469997 1.340851-.5005509 2.058321v1.597908c-.0434404.705327.1198911 1.408297.471948 2.031238.2944985.475142.8502167.748761 1.4301454.704163.4818732.045293.9610766-.107598 1.3157338-.419789.3209298-.452152.4903908-.985436.4862494-1.5302z" fill="#274976" fill-rule="nonzero"/><path d="m55.9962552 159v6.312931c.0372591.728366-.2048133 1.440833-.6682431 1.966773-.5005485.498592-1.1640344.756368-1.8408208.71519-.6750066.044904-1.3382606-.207826-1.8408208-.701436-.4461368-.541356-.6773663-1.253545-.6430264-1.980527v-6.312931h1.0843191v6.257916c-.044434.488433.0766686.977704.3404258 1.375366.6558449.587685 1.6010517.587685 2.2568966 0 .2737957-.392768.4000444-.884613.3530342-1.375366v-6.257916z" fill="#274976" fill-rule="nonzero"/><path d="m63.0869565 165.586047h-3.1594203l-.7246376 2.358139h-1.2028986l3.0144928-8.944186h.9710144l3.0144928 9h-1.2028986zm-2.8985507-.962791h2.5507246l-1.2753623-4.088372z" fill="#274976" fill-rule="nonzero"/><path d="m69.4559194 164.338197h-1.4357683v3.661803h-1.0201511v-8.993163h2.279597c.6614728-.052711 1.3131376.201113 1.8010075.701494.7092198.993474.8182306 2.362379.2770781 3.479415-.212707.419422-.5388785.753308-.9319899.954033l1.5743073 3.844191h-1.1083123zm-1.4357683-.968063h1.2594459c.3858202.028297.7619272-.142396 1.0201511-.462986.2637614-.342119.3990752-.784278.3778338-1.234631 0-1.164481-.465995-1.739707-1.4105794-1.739707h-1.2594458z" fill="#274976" fill-rule="nonzero"/><path d="m79 159.926677h-2.4228029v8.073323h-1.1543942v-8.073323h-2.4228029v-.926677h5.9857482z" fill="#274976" fill-rule="nonzero"/><path d="m83.9211224 165.58589c.0224874-.368185-.0966609-.730234-.3299132-1.002488-.3503739-.309926-.7562137-.540398-1.1927633-.677357-.4522397-.163058-.8797247-.39582-1.268897-.690904-.2870905-.212901-.5220832-.496308-.6852044-.826375-.3880152-.910228-.2226027-1.980528.418736-2.709427.4587998-.460019 1.0714122-.704065 1.700322-.677356.4445616-.003278.8821299.118184 1.2688971.352225.3682451.219274.6682245.54896.86285.9483.2066352.417031.3113794.882981.3045353 1.354713h-1.0785625c.0313203-.448215-.095401-.892745-.3552912-1.246336-.2722462-.307365-.6575825-.470933-1.0531845-.447056-.3552957-.028018-.7052573.104719-.9643618.365773-.2419751.28913-.3653681.669707-.3426022 1.056676-.0117125.350204.1231463.687811.3679801.921205.3332322.303739.7222037.529835 1.1420074.66381.6527945.182688 1.2483662.547367 1.7257 1.056676.3633165.449965.5497141 1.032415.5202478 1.625657.0240256.64182-.2117264 1.263657-.6471375 1.706939-.4878714.439888-1.1131408.667244-1.751078.636715-.442368-.001912-.8777294-.118114-1.268897-.338678-.395358-.206555-.7259844-.531303-.9516728-.934753-.2301365-.408698-.3487938-.877891-.3426022-1.354713h1.0278066c-.0388855.461779.115214.918324.4210646 1.247472.3058506.329147.7322334.497301 1.1650567.459467.3706585.028627.7365136-.1032 1.0151177-.365773.2512244-.308583.358475-.721793.2918463-1.124412z" fill="#274976" fill-rule="nonzero"/><path d="m96.8372643 164.071177c.0147415.643964-.0909327 1.285194-.3119101 1.892668-.1750421.469518-.48.883306-.881485 1.196061l1.3561308 1.130344-.7323106.70975-1.586673-1.393214c-.2403869.052202-.4859638.078647-.7323107.078861-.8258199.032399-1.6193473-.3132-2.1426866-.93319-.5688702-.761846-.8512549-1.689592-.8001172-2.628706v-1.550936c-.0494161-.934979.2224333-1.859451.7729946-2.628705.5482616-.60037 1.3357963-.94411 2.1630286-.94411.8272322 0 1.6147669.34374 2.1630286.94411.5534937.768478.8299647 1.692457.7865558 2.628705zm-1.0984659-1.485218c.0529447-.695437-.1074761-1.390518-.4610845-1.997816-.3264443-.404134-.8265673-.640249-1.3561308-.640249s-1.0296864.236115-1.3561308.640249c-.366359.593979-.5410992 1.280562-.5017684 1.971529v1.511505c-.0455294.690698.1145051 1.379544.4610845 1.984673.3322256.395118.8302273.624418 1.3561308.624418s1.0239052-.2293 1.3561308-.624418c.3439495-.577842.5087436-1.239528.4746458-1.905812z" fill="#274976" fill-rule="nonzero"/><path d="m103.069959 165.586047h-3.1399178l-.7201647 2.358139h-1.2098765l2.995885-8.944186h1.00823l2.995885 9h-1.209877zm-2.880659-.962791h2.53498l-1.26749-4.088372z" fill="#274976" fill-rule="nonzero"/><path d="m112 159.926677h-2.411348v8.073323h-1.148936v-8.073323h-2.439716v-.926677h5.957447z" fill="#274976" fill-rule="nonzero"/><path d="m117.065979 165.586047h-3.146391l-.72165 2.358139h-1.197938l3.002062-8.944186h.995876l3.002062 9h-1.197938zm-2.886598-.962791h2.540207l-1.270103-4.088372z" fill="#274976" fill-rule="nonzero"/><path d="m123.461929 164.338096h-1.43401v3.661904h-1.027919v-8.993413h2.284264c.670197-.051619 1.330364.201809 1.827411.701514.439864.556626.663319 1.282647.621828 2.020361.002912.493366-.115523.978329-.34264 1.403029-.214327.419434-.542982.753329-.939086.954059l1.548223 3.844299h-1.116751zm-1.446701-.96809h1.269036c.388758.028297.767729-.142401 1.027919-.463.265769-.342128.402114-.784299.38071-1.234665 0-1.164513-.469543-1.739755-1.421319-1.739755h-1.269036z" fill="#274976" fill-rule="nonzero"/><path d="m132.885 168h-.79v-9h.81z" fill="#274976" fill-rule="nonzero"/><path d="m141 168h-1.165877l-3.668246-7.020281v7.020281h-1.165877v-9h1.165877l3.682464 7.020281v-7.020281h1.151659z" fill="#274976" fill-rule="nonzero"/><path d="m148.942857 159.926677h-2.428571v8.073323h-1.1v-8.073323h-2.414286v-.926677h6z" fill="#274976" fill-rule="nonzero"/><path d="m155.45245 163.815913h-3.285303v3.215288h3.832853v.968799h-5v-9h4.927954v.982839h-3.760807v2.906397h3.285303z" fill="#274976" fill-rule="nonzero"/><path d="m160.455919 164.337256h-1.423173v3.662744h-1.032746v-8.995474h2.279597c.66396-.042046 1.3159.210187 1.813602.701675.432.558921.649169 1.284871.604534 2.020824.006708.492166-.106458.977152-.327456 1.40335-.217341.420523-.54776.754333-.944584.954278l1.574307 3.845179h-1.120907zm-1.423173-.968311h1.259445c.387776.016855.763548-.151649 1.032746-.463106.263761-.342207.399075-.78448.377834-1.234948 0-1.164781-.47859-1.740154-1.423174-1.740154h-1.259446z" fill="#274976" fill-rule="nonzero"/><path d="m171 168h-1.154394l-3.691212-7.020281v7.020281h-1.154394v-9h1.154394l3.691212 7.020281v-7.020281h1.154394z" fill="#274976" fill-rule="nonzero"/><path d="m178.065979 165.586047h-3.146391l-.72165 2.358139h-1.197938l2.987629-8.944186h1.010309l3.002062 9h-1.125773zm-2.886598-.962791h2.540207l-1.270103-4.088372z" fill="#274976" fill-rule="nonzero"/><path d="m186 159.926677h-2.428571v8.073323h-1.157143v-8.073323h-2.414286v-.926677h6z" fill="#274976" fill-rule="nonzero"/><path d="m188.905 168h-.81v-9h.81z" fill="#274976" fill-rule="nonzero"/><path d="m196.99418 164.331379c.050277.962028-.226308 1.913244-.78646 2.704752-.531224.64718-1.347566 1.004476-2.19381.960187-.83317.027678-1.63445-.315304-2.180012-.93314-.580663-.783594-.872557-1.737269-.827853-2.704751v-1.649899c-.051329-.962145.225351-1.913688.78646-2.704752.525416-.666389 1.349292-1.03987 2.207608-1.000758.845396-.039842 1.659773.316594 2.193809.960187.566955.788916.848629 1.740932.800258 2.704752zm-1.117601-1.528185c.053867-.715554-.109348-1.430744-.469117-2.055611-.335134-.411119-.842868-.650493-1.379754-.650493s-1.044621.239374-1.379755.650493c-.34819.614476-.510892 1.313345-.469116 2.01504v1.555232c-.046323.71068.116499 1.419453.469116 2.042088.306823.450409.827357.715715 1.379755.703235.543027.029694 1.063734-.215286 1.379754-.64914.339683-.607858.501991-1.295675.469117-1.987993z" fill="#274976" fill-rule="nonzero"/><path d="m205 168h-1.154394l-3.67696-7.020281v7.020281h-1.168646v-9h1.168646l3.691211 7.020281v-7.020281h1.140143z" fill="#274976" fill-rule="nonzero"/><path d="m212.045175 165.64186h-3.133471l-.718686 2.35814h-1.193018l2.989733-9h1.020534l2.989733 9h-1.193018zm-2.874744-.96279h2.515401l-1.264887-4.088372z" fill="#274976" fill-rule="nonzero"/><path d="m217.227545 167.031201h3.772455v.968799h-5v-9h1.227545z" fill="#274976" fill-rule="nonzero"/><path d="m226 167.868275v-8.864076h1.960372c.843545-.047618 1.663425.311679 2.240426.981824.568774.784208.849947 1.769511.789241 2.765702v1.507308c.068537.999445-.21851 1.989365-.801971 2.765702-.613679.677902-1.468983 1.031377-2.342263.967996zm1.043835-7.951394v6.997226h.827429c.59789.050412 1.184132-.199232 1.591212-.677597.368337-.594423.547194-1.303602.509187-2.018962v-1.576451c.05419-.732423-.120733-1.46328-.496458-2.074276-.389261-.453117-.945604-.691816-1.514833-.64994z" fill="#274976" fill-rule="nonzero"/><path d="m238.414286 163.815913h-3.257143v3.215288h3.842857v.968799h-5v-9h4.885714v.982839h-3.728571v2.906397h3.257143z" fill="#274976" fill-rule="nonzero"/><path d="m244.965358 165.653297c.022595-.368142-.097123-.730148-.33149-1.00237-.352048-.309889-.759827-.540334-1.198462-.677277-.476047-.158377-.927233-.391206-1.338709-.690822-.285311-.216616-.520701-.499119-.688478-.826277-.158019-.331276-.236837-.698792-.229493-1.070098-.020856-.643838.220793-1.265925.662979-1.706737.459428-.462634 1.076068-.707088 1.708447-.677277.446686-.003277.886345.11817 1.27496.352184.370005.219248.671418.548896.866973.948188.207623.416982.312867.882877.30599 1.354553h-1.045467c.033076-.450565-.099444-.897222-.369738-1.246189-.264228-.313427-.650547-.478602-1.045468-.447003-.361299-.031929-.718307.10107-.981719.36573-.243131.289096-.367114.669628-.344239 1.056551-.006787.351976.133221.689138.382488.921097.334824.303702.725654.529771 1.147464.663731.654087.187384 1.251421.55136 1.733946 1.056552.359391.453335.54589 1.033265.522733 1.625464.024141.641744-.212738 1.263508-.650229 1.706737-.49348.443089-1.12688.67063-1.772195.63664-.444737.000279-.882668-.116039-1.27496-.338638-.397247-.20653-.729453-.531239-.95622-.934642-.231236-.40865-.350461-.877788-.344239-1.354553h1.007218c-.043162.460365.108518.917294.413961 1.247039.305442.329744.73304.498183 1.16699.459698.376547.030791.748869-.101064 1.032717-.36573.252583-.283096.378035-.668136.34424-1.056551z" fill="#274976" fill-rule="nonzero"/><path d="m248.905 168h-.81v-9h.81z" fill="#274976" fill-rule="nonzero"/><path d="m256.943223 166.788424-.198717.243673c-.651942.668942-1.585284 1.02202-2.54075.96115-.883828.038791-1.738929-.30433-2.327837-.934076-.619716-.774256-.927008-1.735152-.865842-2.707467v-1.719242c-.067728-.960665.207423-1.914916.780677-2.707468.57657-.628694 1.425118-.968394 2.299449-.920539.750265-.03687 1.485262.211397 2.043955.690405.527903.539462.817649 1.252126.809065 1.989988h-1.149724c-.010167-.460902-.174259-.906689-.468406-1.27251-.314742-.32745-.77075-.497414-1.23489-.460269-.550723-.039007-1.084783.190199-1.419413.60918-.35812.595424-.52587 1.277726-.4826 1.962914v1.786929c-.051093.708247.132634 1.413884.525183 2.017063.34387.470112.918732.736557 1.518772.703942.512238.040452 1.020987-.109962 1.419413-.419658l.170329-.148911v-1.989988h-1.660713v-.947614h2.838826z" fill="#274976" fill-rule="nonzero"/><path d="m266 168h-1.154394l-3.691212-7.020281v7.020281h-1.154394v-9h1.154394l3.691212 7.020281v-7.020281h1.154394z" fill="#274976" fill-rule="nonzero"/><path d="m276.999299 165.097808c.010127.789544-.284879 1.555362-.829484 2.153287-.571285.516164-1.342489.785733-2.130917.744848-.866793.026051-1.693113-.34752-2.216725-1.002159-.583606-.791269-.870592-1.744811-.815183-2.708538v-1.584494c-.057458-.968024.24068-1.925042.843786-2.708538.560608-.646457 1.405197-1.011356 2.288233-.988617.773811-.038762 1.528289.237163 2.07371.758391.52449.611495.803176 1.379206.78658 2.16683h-1.172719c.016674-.540211-.148617-1.071434-.471948-1.516781-.302869-.330423-.755659-.50193-1.215623-.460451-.571058-.020696-1.112525.240801-1.430146.690677-.384481.62222-.563772 1.339067-.514852 2.058489v1.598037c-.043441.705385.119891 1.408412.471948 2.031404.296934.472745.850922.745535 1.430145.704219.477294.043085.951175-.109782 1.301432-.419823.32093-.452188.490391-.985516.48625-1.530324z" fill="#274976" fill-rule="nonzero"/><path d="m284.991663 164.350836c.054388.959125-.217707 1.908857-.773806 2.700921-.560505.603861-1.35592.948243-2.190145.948243-.834226 0-1.629641-.344382-2.190146-.948243-.598372-.774233-.892563-1.732633-.829077-2.700921v-1.647561c-.051405-.960782.225684-1.910978.787623-2.70092.521837-.663276 1.341792-1.036236 2.197055-.999341.846647-.039786 1.662228.316146 2.197054.958827.579903.782062.863254 1.73698.801442 2.70092zm-1.119255-1.52602c.050175-.712644-.107968-1.424545-.455992-2.052699-.311906-.441474-.833278-.696248-1.381795-.67523-.551752-.020637-1.074913.240124-1.381796.688735-.354229.611938-.522034 1.310109-.483628 2.012185v1.553029c-.042976.711057.124954 1.419125.483628 2.039195.305463.451743.827971.717285 1.381796.70224.544888.034931 1.068861-.210872 1.381795-.648221.346447-.604648.509415-1.293264.46981-1.985177z" fill="#274976" fill-rule="nonzero"/><path d="m289.371534 159 2.173753 7.339535 2.160813-7.339535h1.2939v9h-1.048059v-3.55814l.103512-3.516279-2.186691 6.976745h-.750463l-2.173752-6.976745.103512 3.488372v3.502326h-1.048059v-8.916279z" fill="#274976" fill-rule="nonzero"/><path d="m298.974988 164.463212v3.536788h-.974988v-8.996354h2.532435c.668845-.038988 1.321564.236138 1.798029.757883.444881.548912.676872 1.269916.645771 2.006987.098543.740082-.112594 1.489598-.57355 2.036045-.460956.546448-1.121471.830245-1.794277.77093zm0-.982441h1.557447c.392523.026444.776045-.13745 1.050961-.449116.499346-.78215.499346-1.828337 0-2.610487-.254696-.331112-.633543-.512558-1.025637-.491221h-1.582771z" fill="#274976" fill-rule="nonzero"/><path d="m309.380403 163.815913h-3.285302v3.215288h3.904899v.968799h-5v-9h4.942363v.982839h-3.775216v2.906397h3.285303z" fill="#274976" fill-rule="nonzero"/><path d="m317 159.926677h-2.420048v8.073323h-1.159904v-8.073323h-2.420048v-.926677h6z" fill="#274976" fill-rule="nonzero"/><path d="m319.905 168h-.81v-9h.81z" fill="#274976" fill-rule="nonzero"/><path d="m328 159.926677h-2.414286v8.073323h-1.157143v-8.073323h-2.428571v-.926677h6z" fill="#274976" fill-rule="nonzero"/><path d="m330.905 168h-.81v-9h.81z" fill="#274976" fill-rule="nonzero"/><path d="m339.991663 164.350745c.054388.959149-.217707 1.908904-.773806 2.700988-.560505.603876-1.35592.948267-2.190145.948267-.834226 0-1.629641-.344391-2.190146-.948267-.598372-.774252-.892563-1.732676-.829077-2.700988v-1.647602c-.051405-.960806.225684-1.911025.787623-2.700988.526193-.665462 1.351287-1.038423 2.210873-.999365.841872-.035439 1.651356.320076 2.183236.95885.579903.782083.863254 1.737024.801442 2.700988zm-1.119255-1.526058c.050175-.712662-.107968-1.424581-.455992-2.05275-.33563-.410547-.844115-.649589-1.381795-.649589s-1.046166.239042-1.381796.649589c-.354229.611953-.522034 1.310141-.483628 2.012236v1.553067c-.042976.711075.124954 1.419161.483628 2.039246.305463.451754.827971.717303 1.381796.702257.544888.034932 1.068861-.210877 1.381795-.648237.353162-.602107.516595-1.29271.46981-1.985226z" fill="#274976" fill-rule="nonzero"/><path d="m348 168h-1.168646l-3.67696-7.020281v7.020281h-1.154394v-9h1.154394l3.691212 7.020281v-7.020281h1.154394z" fill="#274976" fill-rule="nonzero"/></g></svg>