<?xml version="1.0" encoding="UTF-8"?>
<svg width="343px" height="255px" viewBox="0 0 343 255" version="1.1" xmlns="http://www.w3.org/2000/svg" xmlns:xlink="http://www.w3.org/1999/xlink">
    <title>spaces blue</title>
    <g id="spaces-blue" stroke="none" stroke-width="1" fill="none" fill-rule="evenodd">
        <polygon id="Triangle-Copy-32" fill="#046B99" transform="translate(171.500000, 127.500000) rotate(-180.000000) translate(-171.500000, -127.500000) " points="171.5 0 343 255 0 255"></polygon>
        <polyline id="Path-2" stroke="#FFFBFB" stroke-width="3" stroke-linecap="round" stroke-linejoin="round" transform="translate(150.963964, 116.939655) scale(1, -1) translate(-150.963964, -116.939655) " points="123 142 123 91.8793103 178.927928 91.8793103 178.927928 111.479335"></polyline>
        <polyline id="Path-3" stroke="#FFFBFB" stroke-width="3" stroke-linecap="round" stroke-linejoin="round" transform="translate(171.063063, 65.060345) scale(1, -1) translate(-171.063063, -65.060345) " points="123 55.4995622 123 90.1206897 219.126126 90.1206897 219.126126 40 178.406031 40"></polyline>
        <line x1="178.27935" y1="76.0517241" x2="178.702632" y2="102.431034" id="Path-4" stroke="#FFFBFB" stroke-width="3" stroke-linecap="round" stroke-linejoin="round" transform="translate(178.490991, 89.241379) scale(1, -1) translate(-178.490991, -89.241379) "></line>
        <line x1="179.364865" y1="40.8793103" x2="179.364865" y2="60.2241379" id="Path-4-Copy" stroke="#FFFBFB" stroke-width="3" stroke-linecap="round" stroke-linejoin="round" transform="translate(179.364865, 50.551724) scale(1, -1) translate(-179.364865, -50.551724) "></line>
    </g>
</svg>