<?xml version="1.0" encoding="UTF-8"?>
<svg width="140px" height="107px" viewBox="0 0 140 107" version="1.1" xmlns="http://www.w3.org/2000/svg" xmlns:xlink="http://www.w3.org/1999/xlink">
    <title>Group 12</title>
    <defs>
        <polygon id="path-1" points="0 0.3575 139.643 0.3575 139.643 105.9995 0 105.9995"></polygon>
    </defs>
    <g id="spaces-blue-svg" stroke="none" stroke-width="1" fill="none" fill-rule="evenodd">
        <g id="spaces-blue" transform="translate(70.000000, 53.500000) scale(1, -1) translate(-70.000000, -53.500000) ">
            <path d="M87.4284,42.8548 C86.8064,42.4748 86.2444,41.9478 85.7654,41.3918 C83.8024,39.1158 81.4084,38.1258 78.0094,38.9988 C81.9824,42.4818 85.7944,45.8248 89.7284,49.2738 C90.4624,46.2868 89.7404,44.2698 87.4284,42.8548" id="Fill-1" fill="#25408E"></path>
            <path d="M81.5846,56.0823 C79.8446,54.5813 78.4096,53.3443 76.8386,51.9893 C76.5536,56.8013 75.8736,56.4773 81.5846,56.0823" id="Fill-3" fill="#25408E"></path>
            <path d="M88.9508,50.2044 C85.0248,46.8334 81.1688,43.3824 77.2768,39.9714 C77.0428,39.7664 76.8008,39.4724 76.3178,39.7514 C76.6278,41.2344 75.5818,43.0764 76.8898,44.2864 C81.0238,48.1084 85.3118,51.7634 89.5408,55.4814 C89.6508,53.5544 90.6908,51.6984 88.9508,50.2044" id="Fill-5" fill="#25408E"></path>
            <path d="M84.7565,38.7913 C86.4925,40.5563 88.0505,41.9123 89.8085,43.2113 C90.3225,38.5693 90.3225,38.5693 84.7565,38.7913" id="Fill-7" fill="#25408E"></path>
            <g id="Group-11" transform="translate(0.000000, 0.643000)">
                <mask id="mask-2" fill="white">
                    <use xlink:href="#path-1"></use>
                </mask>
                <g id="spaces-sub"></g>
                <path d="M92.0993,58.2665 C91.6563,58.4905 91.1783,58.4185 90.7123,58.4185 C78.0863,58.4215 65.4593,58.4215 52.8323,58.4195 C52.4313,58.4195 52.0253,58.4545 51.6383,58.3035 C51.4693,58.1345 51.3013,57.9655 51.1333,57.7975 C51.0343,52.5465 50.7423,47.2935 51.2793,42.0475 C53.1943,41.3695 53.7393,41.6855 53.8493,43.6535 C53.9403,45.2645 53.9423,46.8795 53.9833,48.4935 C53.9833,50.1125 53.9823,51.1645 53.9573,52.5425 C53.9323,54.0415 55.1753,54.7365 56.7913,54.7155 C61.5653,54.6565 66.3403,54.6625 71.1143,54.7125 C72.7043,54.7295 73.2803,54.0725 73.2023,52.5475 C73.1433,51.4105 73.1203,50.2585 73.2853,49.1235 C73.4303,48.1285 73.8533,47.2735 74.9233,47.0615 C75.9013,46.8695 76.6593,47.3995 77.0803,48.2265 C78.2923,50.6005 80.6063,51.8765 82.4033,53.6625 C83.3643,54.6175 84.6413,54.7955 86.2483,54.5955 C82.2353,50.7845 78.0033,47.5325 74.2953,43.7175 C73.5963,43.2475 73.5083,42.5505 73.5083,41.7785 C73.5063,38.2195 73.4773,34.6605 73.4583,31.1005 C75.2763,29.9025 76.1323,30.3105 76.2623,32.4375 C76.4353,35.2635 76.4353,35.2635 79.2213,35.2635 C82.7193,35.2635 86.2173,35.2585 89.7153,35.2645 C92.5353,35.2695 92.7623,35.5105 92.7983,38.4025 C92.8043,38.9385 92.8583,39.4735 92.8893,40.0085 C92.8573,45.1505 92.8203,50.2905 92.7963,55.4325 C92.7923,56.4395 92.8633,57.4525 92.0993,58.2665 L92.0993,58.2665 Z M50.8713,29.0955 L50.8713,21.0045 C50.9083,19.5295 50.9343,17.8705 50.9343,16.5845 C50.6733,14.6365 51.6713,14.2725 53.2163,14.2765 C55.2333,14.2815 57.2493,14.2765 59.2663,14.2765 C63.9713,14.2765 68.6763,14.2845 73.3813,14.2703804 C74.3993,14.2675 75.3873,14.3165 76.2563,14.9265 C76.7753,18.0085 76.4703,21.1035 76.4103,24.1955 C75.8653,24.7185 75.4313,25.4625 74.4593,25.0635 C73.5743,24.6995 73.7873,23.8605 73.6293,23.1955 L73.5533,20.3855 C73.6413,18.2495 71.5783,18.0825 69.9043,18.1085 C65.8003,18.1715 60.9293,18.1185 56.8253,18.1335 C54.1323,18.1445 54.1393,18.1795 54.0573,20.8165 L53.9873,24.6275 C53.9873,26.6385 53.9853,28.5945 53.9853,30.7005 C53.9473,32.2455 53.9203,33.7895 53.8683,35.3325 C53.8303,36.4165 53.6153,37.4315 52.2113,37.3495 C50.9213,37.2745 50.9173,36.3895 50.9493,35.3425 C51.0093,33.2625 50.9073,31.1775 50.8713,29.0955 L50.8713,29.0955 Z M-0.0007,0.3575 L70.4283,105.9995 L139.6433,0.3575 L-0.0007,0.3575 Z" id="Fill-9" fill="#25408E" mask="url(#mask-2)"></path>
            </g>
        </g>
    </g>
</svg>