<?xml version="1.0" encoding="UTF-8"?>
<svg width="406px" height="303px" viewBox="0 0 406 303" version="1.1" xmlns="http://www.w3.org/2000/svg" xmlns:xlink="http://www.w3.org/1999/xlink">
    <title>Group 47 Copy 2</title>
    <g id="wearble-blue" stroke="none" stroke-width="1" fill="none" fill-rule="evenodd">
        <g id="Group-47-Copy-2" transform="translate(3.000000, 2.000000)" stroke-width="3">
            <polygon id="Triangle-Copy-31" stroke="#FFFFFF" fill="#046B99" transform="translate(200.000000, 148.688047) rotate(-180.000000) translate(-200.000000, -148.688047) " points="200 0 400 297.376093 0 297.376093"></polygon>
            <g id="Group-46" transform="translate(199.613703, 113.976676) scale(1, -1) translate(-199.613703, -113.976676) translate(127.113703, 55.976676)" stroke="#FEFFFF" stroke-linejoin="round">
                <path d="M72.8862974,16.3265306 C83.7296526,16.3265306 90.9211006,10.8843537 94.4606414,-3.73034936e-14 C87.2366375,1.28059967 80.0451895,1.91565544 72.8862974,1.90516731 C65.6625857,1.89458421 58.4711376,1.25952844 51.3119534,-3.73034936e-14 C54.8514942,10.8843537 62.0429422,16.3265306 72.8862974,16.3265306 Z" id="Oval"></path>
                <polyline id="Path-8" stroke-linecap="round" points="49.9908892 -2.06057393e-13 -1.33784852e-12 15.6194446 8.3169499 42.5024888 30.5549428 39.3052691 30.5549428 115.451895 72.303207 115.451895"></polyline>
                <polyline id="Path-8" stroke-linecap="round" transform="translate(108.454810, 57.725948) scale(-1, 1) translate(-108.454810, -57.725948) " points="122.294096 -2.06057393e-13 72.303207 15.6194446 80.6201569 42.5024888 102.85815 39.3052691 102.85815 115.451895 144.606414 115.451895"></polyline>
            </g>
        </g>
    </g>
</svg>