<?xml version="1.0" encoding="UTF-8"?>
<svg width="142px" height="108px" viewBox="0 0 142 108" version="1.1" xmlns="http://www.w3.org/2000/svg" xmlns:xlink="http://www.w3.org/1999/xlink">
    <title>Group 5</title>
    <g id="wearable-svg" stroke="none" stroke-width="1" fill="none" fill-rule="evenodd">
        <g id="Group-5" transform="translate(1.000000, 1.000000)">
            <polygon id="Stroke-1" stroke="#25408E" stroke-width="1.147" points="139.7044 105.6829 0.0614 105.6829 69.2754 0.0399"></polygon>
            <path d="M94.7289,56.4573 C94.3369,57.4573 93.9029,58.4833 93.7699,59.5333 C93.4889,61.7503 92.2599,61.9033 90.3909,61.5753 C84.5069,60.5433 84.8269,60.3133 84.8399,66.1783 C84.8539,72.5803 84.8039,78.9833 84.8679,85.3853 C84.8819,86.8043 84.6149,87.3943 83.0099,87.3763 C75.5329,87.2913 68.0519,87.3063 60.5739,87.3683 C59.1629,87.3803 58.7199,86.9643 58.7539,85.5493 C58.8429,81.8443 58.7849,78.1363 58.7819,74.4293 C58.7799,70.7233 58.8019,67.0153 58.7699,63.3093 C58.7519,61.2653 58.1869,60.8213 56.1839,61.1133 C56.0499,61.1333 55.9189,61.1643 55.7859,61.1833 C50.0929,61.9903 50.0829,61.9643 48.8129,56.2313 C48.6009,55.2753 48.8739,54.9343 49.7679,54.6653 C54.0179,53.3843 58.2579,52.0643 62.4779,50.6863 C63.3739,50.3953 63.7889,50.5713 64.1939,51.3903 C67.0979,57.2643 76.9389,57.2063 79.7839,51.4793 C80.2179,50.6043 80.7529,50.5473 81.5669,50.8073 C85.6029,52.0973 89.6379,53.3933 93.6979,54.6073 C94.7739,54.9293 95.1599,55.3583 94.7289,56.4573 L94.7289,56.4573 Z M76.5109,50.8183 C74.5029,53.6463 69.9579,53.7183 67.3489,50.8183 L76.5109,50.8183 Z M98.0409,53.1993 C93.7939,51.8403 89.5489,50.4733 85.2989,49.1223 C82.4149,48.2063 79.8389,46.8323 77.2759,47.3043 C76.3079,47.6843 75.1039,48.0463 73.8349,48.0463 C71.7499,48.1943 69.2899,47.9193 67.2089,47.6483 C66.0289,47.4943 64.8259,47.0553 63.6249,47.4243 C57.9769,49.1633 52.3399,50.9413 46.6919,52.6833 C45.6769,52.9953 45.1979,53.6253 45.4549,54.6383 C46.2299,57.6973 46.9509,60.7753 48.1309,63.7173 C48.4639,64.5463 48.9889,65.0143 49.9689,64.8793 C51.8479,64.6203 53.7359,64.4213 55.6199,64.1973 C55.6829,64.3143 55.7949,64.4333 55.7959,64.5533 C55.8589,70.9113 55.9219,77.2723 55.7609,83.6273 C55.7109,85.6083 55.2629,87.5843 55.6049,89.5833 C55.7709,89.9623 56.0389,90.2393 56.4159,90.4123 C58.3479,90.7983 60.2989,90.5103 62.2389,90.6033 L76.5819,90.5903 C80.1269,90.4733 83.6879,90.9243 87.2189,90.3313 C87.5719,90.1263 87.8379,89.8433 87.9999,89.4653 C88.2739,88.6123 88.1469,87.7313 88.1989,86.8633 C88.4689,82.3693 87.5699,77.9123 87.7919,73.4193 C87.9439,70.3473 87.5419,67.2623 88.0029,64.1963 C88.8059,63.9883 89.5659,64.3743 90.3389,64.3763 C91.9449,64.3813 93.5399,65.4003 95.1549,64.4503 C96.0429,61.6033 96.9149,58.7513 97.8329,55.9143 C98.1249,55.0123 98.3759,54.1363 98.0409,53.1993 L98.0409,53.1993 Z" id="Fill-3" fill="#25408E"></path>
        </g>
    </g>
</svg>