<?xml version="1.0" encoding="UTF-8"?>
<svg width="142px" height="108px" viewBox="0 0 142 108" version="1.1" xmlns="http://www.w3.org/2000/svg" xmlns:xlink="http://www.w3.org/1999/xlink">
    <title>Page 1</title>
    <g id="Page-1" stroke="none" stroke-width="1" fill="none" fill-rule="evenodd">
        <polygon id="wearable-blue-svg" stroke="#25408E" stroke-width="1.147" fill="#25408E" points="140.7044 106.6829 1.0614 106.6829 70.2754 1.0399"></polygon>
        <path d="M93.7289,52.4573 C93.3369,53.4573 92.9029,54.4833 92.7699,55.5333 C92.4889,57.7503 91.2599,57.9033 89.3909,57.5753 C83.5069,56.5433 83.8269,56.3133 83.8399,62.1783 C83.8539,68.5803 83.8039,74.9833 83.8679,81.3853 C83.8819,82.8043 83.6149,83.3943 82.0099,83.3763 C74.5329,83.2913 67.0519,83.3063 59.5739,83.3683 C58.1629,83.3803 57.7199,82.9643 57.7539,81.5493 C57.8429,77.8443 57.7849,74.1363 57.7819,70.4293 C57.7799,66.7233 57.8019,63.0153 57.7699,59.3093 C57.7519,57.2653 57.1869,56.8213 55.1839,57.1133 C55.0499,57.1333 54.9189,57.1643 54.7859,57.1833 C49.0929,57.9903 49.0829,57.9643 47.8129,52.2313 C47.6009,51.2753 47.8739,50.9343 48.7679,50.6653 C53.0179,49.3843 57.2579,48.0643 61.4779,46.6863 C62.3739,46.3953 62.7889,46.5713 63.1939,47.3903 C66.0979,53.2643 75.9389,53.2063 78.7839,47.4793 C79.2179,46.6043 79.7529,46.5473 80.5669,46.8073 C84.6029,48.0973 88.6379,49.3933 92.6979,50.6073 C93.7739,50.9293 94.1599,51.3583 93.7289,52.4573 L93.7289,52.4573 Z M75.5109,46.8183 C73.5029,49.6463 68.9579,49.7183 66.3489,46.8183 L75.5109,46.8183 Z M97.0409,49.1993 C92.7939,47.8403 88.5489,46.4733 84.2989,45.1223 C81.4149,44.2063 78.8389,42.8323 76.2759,43.3043 C75.3079,43.6843 74.1039,44.0463 72.8349,44.0463 C70.7499,44.1943 68.2899,43.9193 66.2089,43.6483 C65.0289,43.4943 63.8259,43.0553 62.6249,43.4243 C56.9769,45.1633 51.3399,46.9413 45.6919,48.6833 C44.6769,48.9953 44.1979,49.6253 44.4549,50.6383 C45.2299,53.6973 45.9509,56.7753 47.1309,59.7173 C47.4639,60.5463 47.9889,61.0143 48.9689,60.8793 C50.8479,60.6203 52.7359,60.4213 54.6199,60.1973 C54.6829,60.3143 54.7949,60.4333 54.7959,60.5533 C54.8589,66.9113 54.9219,73.2723 54.7609,79.6273 C54.7109,81.6083 54.2629,83.5843 54.6049,85.5833 C54.7709,85.9623 55.0389,86.2393 55.4159,86.4123 C57.3479,86.7983 59.2989,86.5103 61.2389,86.6033 L75.5819,86.5903 C79.1269,86.4733 82.6879,86.9243 86.2189,86.3313 C86.5719,86.1263 86.8379,85.8433 86.9999,85.4653 C87.2739,84.6123 87.1469,83.7313 87.1989,82.8633 C87.4689,78.3693 86.5699,73.9123 86.7919,69.4193 C86.9439,66.3473 86.5419,63.2623 87.0029,60.1963 C87.8059,59.9883 88.5659,60.3743 89.3389,60.3763 C90.9449,60.3813 92.5399,61.4003 94.1549,60.4503 C95.0429,57.6033 95.9149,54.7513 96.8329,51.9143 C97.1249,51.0123 97.3759,50.1363 97.0409,49.1993 L97.0409,49.1993 Z" id="Fill-3" fill="#FFFFFF" transform="translate(70.793643, 64.926854) scale(1, -1) translate(-70.793643, -64.926854) "></path>
    </g>
</svg>