<?xml version="1.0" encoding="UTF-8"?>
<svg width="1475px" height="315px" viewBox="0 0 1475 315" version="1.1" xmlns="http://www.w3.org/2000/svg" xmlns:xlink="http://www.w3.org/1999/xlink">
    <title>Group 24 Copy 3</title>
    <g id="Page-1" stroke="none" stroke-width="1" fill="none" fill-rule="evenodd">
        <rect id="BG-Background" fill="#F8F8F8" x="0" y="-5097" width="2093" height="9239"></rect>
        <g id="Group-24-Copy-3" fill="#FFFFFF">
            <polygon id="Triangle" transform="translate(69.000000, 52.000000) rotate(-180.000000) translate(-69.000000, -52.000000) " points="69 0 138 104 0 104"></polygon>
            <polygon id="Triangle-Copy-9" transform="translate(490.000000, 52.000000) rotate(-180.000000) translate(-490.000000, -52.000000) " points="490 0 559 104 421 104"></polygon>
            <polygon id="Triangle-Copy-4" transform="translate(138.000000, 157.000000) rotate(-180.000000) translate(-138.000000, -157.000000) " points="138 104 207 210 69 210"></polygon>
            <polygon id="Triangle-Copy-11" transform="translate(559.000000, 157.000000) rotate(-180.000000) translate(-559.000000, -157.000000) " points="559 104 628 210 490 210"></polygon>
            <polygon id="Triangle-Copy-19" transform="translate(628.000000, 262.000000) rotate(-180.000000) translate(-628.000000, -262.000000) " points="628 209 697 315 559 315"></polygon>
            <polygon id="Triangle-Copy-20" transform="translate(767.000000, 262.000000) rotate(-180.000000) translate(-767.000000, -262.000000) " points="767 209 836 315 698 315"></polygon>
            <polygon id="Triangle-Copy-7" transform="translate(279.000000, 157.000000) rotate(-180.000000) translate(-279.000000, -157.000000) " points="279 104 350 210 208 210"></polygon>
            <polygon id="Triangle-Copy-12" transform="translate(699.000000, 157.000000) rotate(-180.000000) translate(-699.000000, -157.000000) " points="699 104 770 210 628 210"></polygon>
            <polygon id="Triangle-Copy-21" transform="translate(836.000000, 157.000000) rotate(-180.000000) translate(-836.000000, -157.000000) " points="836 104 907 210 765 210"></polygon>
            <polygon id="Triangle-Copy-23" transform="translate(907.000000, 53.000000) rotate(-180.000000) translate(-907.000000, -53.000000) " points="907 0 978 106 836 106"></polygon>
            <polygon id="Triangle-Copy-22" transform="translate(770.000000, 53.000000) rotate(-180.000000) translate(-770.000000, -53.000000) " points="770 0 841 106 699 106"></polygon>
            <polygon id="Triangle-Copy-24" transform="translate(1049.000000, 53.000000) rotate(-180.000000) translate(-1049.000000, -53.000000) " points="1049 0 1120 106 978 106"></polygon>
            <polygon id="Triangle-Copy-28" transform="translate(1191.000000, 53.000000) rotate(-180.000000) translate(-1191.000000, -53.000000) " points="1191 0 1262 106 1120 106"></polygon>
            <polygon id="Triangle-Copy-29" transform="translate(1333.000000, 53.000000) rotate(-180.000000) translate(-1333.000000, -53.000000) " points="1333 0 1404 106 1262 106"></polygon>
            <polygon id="Triangle-Copy-25" transform="translate(1404.000000, 157.000000) rotate(-180.000000) translate(-1404.000000, -157.000000) " points="1404 104 1475 210 1333 210"></polygon>
            <polygon id="Triangle-Copy-6" transform="translate(209.000000, 262.000000) rotate(-180.000000) translate(-209.000000, -262.000000) " points="209 209 279 315 139 315"></polygon>
            <polygon id="Triangle-Copy-13" transform="translate(420.000000, 157.000000) rotate(-180.000000) translate(-420.000000, -157.000000) " points="420 104 490 210 350 210"></polygon>
            <polygon id="Triangle-Copy-16" transform="translate(349.000000, 262.000000) rotate(-180.000000) translate(-349.000000, -262.000000) " points="349 209 419 315 279 315"></polygon>
            <polygon id="Triangle-Copy-5" transform="translate(209.000000, 52.000000) rotate(-180.000000) translate(-209.000000, -52.000000) " points="209 0 280 104 138 104"></polygon>
            <polygon id="Triangle-Copy-15" transform="translate(350.000000, 52.000000) rotate(-180.000000) translate(-350.000000, -52.000000) " points="350 0 421 104 279 104"></polygon>
            <polygon id="Triangle-Copy-14" transform="translate(630.000000, 52.000000) rotate(-180.000000) translate(-630.000000, -52.000000) " points="630 0 701 104 559 104"></polygon>
        </g>
    </g>
</svg>